<svg xmlns="http://www.w3.org/2000/svg" width="162.386" height="199.655" viewBox="0 0 121.789 149.742">
    <defs>
        <clipPath id="clippath">
            <path fill="#fbbd29" d="m19.295 108.109 41.546 41.633 41.544-41.633h-83.09z"/>
        </clipPath>
        <filter id="drop-shadow-1" filterUnits="userSpaceOnUse">
            <feOffset dy="6.281"/>
            <feGaussianBlur result="blur" stdDeviation="2.216"/>
            <feFlood flood-color="#1e181a" flood-opacity=".4"/>
            <feComposite in2="blur" operator="in"/>
            <feComposite in="SourceGraphic"/>
        </filter>
        <style>
            .cls-1{filter:url(#drop-shadow-1)}.cls-1,.cls-2{fill:#fbbd29}.cls-3{fill:#fff}.cls-4{clip-path:url(#clippath)}
        </style>
    </defs>
    <g>
        <circle cx="60.84" cy="65.701" r="59.353" fill="#fbbd29"/>
        <path fill="#fbbd29" d="m19.295 108.109 41.546 41.633 41.544-41.633h-83.09z"/>
        <g clip-path="#clippath">
            <circle cx="60.841" cy="65.701" r="59.359" transform="rotate(-45 60.84 65.7)" fill="#fbbd29" filter="#drop-shadow-1"/>
        </g>
        <circle cx="60.84" cy="65.701" r="59.353" fill="#fbbd29"/>
        <circle cx="60.84" cy="65.701" r="52.73" transform="rotate(-84.345 60.84 65.7)" fill="#fff"/>
        <path d="M24.473 77.02V39.649H50.74v7.634H33.656v8.062h15.482v7.634H33.656v14.04h-9.183ZM62.907 77.02h-9.183V39.649h9.183v37.37ZM87.779 58.014l12.28 19.006h-9.61l-7.475-11.585-7.42 11.585H65.89l12.28-19.06L66.425 39.65h9.503l7.046 10.944 7.048-10.944h9.556L87.779 58.014ZM37.217 94.393h-1.003V81.9l-4.801 8.88h-1.135l-4.801-8.88v12.493h-1.004v-14.29h1.07l5.302 9.82 5.303-9.82h1.069v14.29ZM45.663 94.393h-1.048v-5.531l-5.477-8.758h1.114l4.887 7.84 4.889-7.84h1.112l-5.477 8.758v5.53ZM58.868 94.613c-1.8 0-3.371-.57-4.547-1.647-1.833-1.681-1.987-3.806-1.987-5.84s.154-4.159 1.988-5.84c1.188-1.087 2.76-1.663 4.546-1.663 1.757 0 3.43.622 4.592 1.705 1.1 1.034 1.458 2.327 1.563 3.227l.062.534h-3.79l-.045-.434c-.047-.448-.206-.785-.549-1.17-.369-.424-1.035-.665-1.833-.665-.721 0-1.413.272-1.898.746-.878.838-.878 2.41-.878 3.56s0 2.722.873 3.554c.49.482 1.181.754 1.903.754.776 0 1.46-.254 1.827-.68.331-.369.505-.759.555-1.232l.045-.436h3.79l-.062.535c-.15 1.288-.705 2.44-1.563 3.244-1.188 1.11-2.862 1.748-4.592 1.748ZM70.877 94.362H67.12V79.87h3.757v14.492ZM80.762 94.362h-3.715V83.123h-4.374V79.87h12.463v3.253h-4.374v11.239ZM95.173 94.362h-3.737V88.82l-5.497-8.95h4.1l3.349 5.368 3.35-5.368h3.978l-5.543 8.95v5.542Z" fill="#fbbd29"/>
    </g>
</svg>
