<svg xmlns="http://www.w3.org/2000/svg" viewBox="0 0 17 9" style="enable-background:new 0 0 17 9" xml:space="preserve">
    <path d="M7.8 0c.5 0 1 .2 1.4.5l.1.1 2.6 2.2 3.4.4c.9.1 1.6.9 1.7 1.8v1.6c0 .5-.4 1-1 1.1h-1.2c-.2.7-.9 1.3-1.7 1.3s-1.6-.6-1.7-1.4H5C4.8 8.4 4.1 9 3.3 9c-.9 0-1.6-.6-1.7-1.5-.4-.1-.8-.3-1.1-.7-.3-.2-.4-.6-.5-1v-2c0-.5.1-1 .4-1.4l.1-.1L1.8.6c.3-.3.8-.6 1.3-.6h4.7zm5.3 6.3c-.6 0-1.1.5-1.1 1.1s.5 1.1 1.1 1.1 1.1-.5 1.1-1.1-.5-1.1-1.1-1.1zm-9.9 0c-.6 0-1.1.5-1.1 1.1s.5 1.1 1.1 1.1S4.3 8 4.3 7.4s-.5-1.1-1.1-1.1zm3.2-2.9H.8v.7h.4c.2 0 .4.2.4.4s-.1.3-.3.4H.7v.9c0 .3.1.6.3.8.1.2.3.3.5.4.2-.8.9-1.4 1.7-1.4.9 0 1.6.6 1.7 1.4h1.4c.1-.1.1-3.6.1-3.6zm5.3 0H7.1v3.5h4.3c.2-.8.8-1.4 1.6-1.4h.1c.9 0 1.6.6 1.7 1.4h1.1c.2 0 .3-.1.3-.3V5.5h-1.1c-.2 0-.4-.2-.4-.4s.1-.3.3-.4h1.1c-.1-.4-.5-.8-.9-.9h-.1c.1.1-3.4-.4-3.4-.4zm-2.8.7c.2 0 .4.2.4.4s-.1.3-.3.4h-.8c-.2-.1-.4-.2-.4-.4s.1-.3.3-.4h.8zm-4.3 0c.2 0 .4.2.4.4s-.1.3-.3.4h-.8c-.2 0-.4-.2-.4-.4s.1-.3.3-.4h.8zM3.5.7h-.3c-.3 0-.6.1-.8.3v.1L1.1 2.7h1.8l.6-2zm4.3 0h-.7v2.1h3.7l-2-1.7c-.2-.3-.5-.4-1-.4zM6.4.7H4.2l-.5 2h2.7v-2z" style="fill-rule:evenodd;clip-rule:evenodd;fill:#545454"/>
</svg>
