<svg xmlns="http://www.w3.org/2000/svg" width="18" height="18">
    <path fill-rule="evenodd" d="M14.423 8.656a2.11 2.11 0 0 1 2.809-.224l.119.103c.386.362.619.862.646 1.395a2.056 2.056 0 0 1-.598 1.56l-5.62 5.633a.398.398 0 0 1-.17.1l-2.611.747A.782.782 0 0 1 8.03 17l.746-2.616a.408.408 0 0 1 .1-.17zm-4.997 6.301-.643 2.258 2.255-.646-1.612-1.612zm4.902-5.098-4.464 4.474 1.797 1.797 4.464-4.474-1.797-1.797zM6.265 0c.787.02 1.531.38 2.053.992s.776 1.422.7 2.163a4.407 4.407 0 0 1-1.076 3.336c-.128.146-.105 1.037.026 1.205l.029.023 1.278.492.53.213c.213.088.4.17.573.25.853.397 1.357.763 1.583 1.232a.389.389 0 0 1-.165.513.361.361 0 0 1-.493-.17c-.126-.263-.52-.548-1.225-.876l-.26-.117c-.182-.08-.385-.164-.62-.257l-1.455-.562c-.731-.28-.792-1.951-.344-2.463.659-.741.982-1.74.887-2.819a2.235 2.235 0 0 0-.519-1.656A2.059 2.059 0 0 0 6.265.764a2.067 2.067 0 0 0-1.52.735c-.387.453-.575 1.053-.519 1.73a3.63 3.63 0 0 0 .892 2.748c.427.488.39 2.042-.257 2.418l-.088.042c.092-.035-1.003.384-1.273.49l-.513.206c-.206.085-.385.163-.55.24-.705.328-1.098.613-1.215.854a6.512 6.512 0 0 0-.457 1.848l-.012.16h7.711c.18 0 .331.136.362.314l.006.069a.38.38 0 0 1-.302.376L8.464 13H.368A.376.376 0 0 1 0 12.613c.01-.924.196-1.836.554-2.707.226-.47.73-.835 1.583-1.231l.272-.123c.19-.083.4-.17.643-.267l1.466-.566.029-.023c.122-.156.15-.935.053-1.16l-.024-.043c-.803-.901-1.197-2.116-1.083-3.265A3.023 3.023 0 0 1 4.194.992 2.798 2.798 0 0 1 6.265 0zm10.39 8.985a1.333 1.333 0 0 0-1.672.22l-.124.123 1.797 1.797.19-.19a1.27 1.27 0 0 0 .357-.71l.013-.135v-.12c-.02-.36-.19-.694-.465-.918z"/>
</svg>
