<svg xmlns="http://www.w3.org/2000/svg" viewBox="0 0 17 11" style="enable-background:new 0 0 17 11" xml:space="preserve">
    <path d="M13.1.2c0 .2 0 .3-.2.4h-.1l-1 .3.3 1 .9 2.6c.2-.1.5-.1.8-.1 1.8 0 3.2 1.4 3.2 3.3S15.6 11 13.8 11s-3.2-1.4-3.2-3.3c0-1.3.7-2.5 1.8-3l-.7-1.9-3.6 5.1H6.4c-.2 1.6-1.5 3-3.2 3C1.4 11 0 9.6 0 7.7s1.4-3.3 3.2-3.3c.7 0 1.3.2 1.9.6L6 4l-.7-1.8h-.7c-.2 0-.4-.2-.4-.4s.1-.3.3-.4h2.2c.2 0 .4.2.4.4s-.1.3-.3.4H6l.5 1.4 4.8-1.7-.2-.6c-.1-.2-.1-.4 0-.6.1-.2.2-.3.4-.3h.1l1-.3c.3-.2.5-.1.5.1zm-9.9 5C1.8 5.2.7 6.3.7 7.8s1.1 2.6 2.5 2.6c1.2 0 2.3-.9 2.5-2.3H3.2c-.3-.1-.4-.4-.3-.7l1.6-1.9c-.3-.2-.8-.3-1.3-.3zm10.6 0c-.2 0-.3 0-.5.1l.8 2.4c.1.2 0 .4-.2.5s-.3 0-.4-.2v-.2l-.8-2.4c-.8.4-1.3 1.3-1.3 2.3 0 1.4 1.1 2.6 2.5 2.6s2.5-1.1 2.5-2.6c-.1-1.4-1.2-2.5-2.6-2.5zm-8.7.9L4 7.4h1.7c-.1-.5-.3-.9-.6-1.3zm1.1-1.3-.6.8c.4.4.7 1.1.8 1.8h.9L6.2 4.8zm4.7-2-4 1.4L8 6.9l2.9-4.1z" style="fill-rule:evenodd;clip-rule:evenodd;fill:#545454"/>
</svg>
