<svg width="40" height="41" xmlns="http://www.w3.org/2000/svg">
    <path d="M26.351 13.191a.502.502 0 0 1-.274.577l-.084.03-1.438.365.481 1.324a.513.513 0 0 1 .013.036l1.24 3.42c.34-.085.696-.13 1.062-.13 2.45 0 4.435 2.014 4.435 4.5 0 2.485-1.985 4.5-4.435 4.5-2.449 0-4.434-2.015-4.434-4.5 0-1.761.996-3.286 2.448-4.025l-.938-2.58-5.057 6.904-.06.067-.067.054-.075.04-.08.027-.083.013h-2.029c-.245 2.25-2.125 4-4.407 4-2.45 0-4.435-2.015-4.435-4.5 0-2.486 1.986-4.5 4.435-4.5.963 0 1.855.311 2.582.84l1.258-1.418-.969-2.423h-.9a.496.496 0 0 1-.493-.5c0-.245.174-.45.404-.491l.089-.008h2.956c.273 0 .493.223.493.5 0 .245-.174.45-.404.491l-.089.008h-.992l.754 1.883 6.68-2.335-.308-.852a1.013 1.013 0 0 1 .054-.813.99.99 0 0 1 .518-.466l.114-.037 1.438-.365a.492.492 0 0 1 .597.364zM12.57 19.812c-1.905 0-3.45 1.568-3.45 3.5 0 1.933 1.545 3.5 3.45 3.5 1.737 0 3.175-1.303 3.414-2.999H12.57c-.398 0-.62-.447-.417-.768l.05-.067 2.285-2.575a3.398 3.398 0 0 0-1.918-.59zm14.782 0a3.47 3.47 0 0 0-.718.076l1.18 3.252a.502.502 0 0 1-.291.642.49.49 0 0 1-.595-.215l-.038-.082-1.18-3.25a3.507 3.507 0 0 0-1.807 3.078c0 1.932 1.544 3.5 3.45 3.5 1.904 0 3.449-1.568 3.449-3.5 0-1.933-1.545-3.5-3.45-3.5zm-12.132 1.26-1.544 1.74h2.308a3.51 3.51 0 0 0-.764-1.74zm1.602-1.807-.938 1.057c.595.678.99 1.54 1.094 2.49h1.264l-1.42-3.547zm6.41-2.6-5.603 1.957 1.474 3.678 4.128-5.634z" fill="#545454" fill-rule="evenodd"/>
</svg>
