<svg width="33" height="32" xmlns="http://www.w3.org/2000/svg">
    <path d="M15.963 10.8c.555 0 1.093.186 1.528.526l.128.106 2.9 2.589 3.878.557a2.24 2.24 0 0 1 1.914 2.083l.004.139v1.6a1.2 1.2 0 0 1-1.08 1.195l-.114.005h-1.235a1.994 1.994 0 0 1-1.95 1.6 1.994 1.994 0 0 1-1.951-1.6h-7.247a1.994 1.994 0 0 1-1.95 1.6 1.994 1.994 0 0 1-1.958-1.636 1.885 1.885 0 0 1-1.205-.808 2.532 2.532 0 0 1-.414-1.21l-.007-.186V15.2c0-.545.159-1.077.454-1.532l.104-.148 1.433-1.92a1.988 1.988 0 0 1 1.449-.795l.144-.005h5.175zm5.973 7.2c-.66 0-1.195.537-1.195 1.2 0 .663.535 1.2 1.195 1.2s1.194-.537 1.194-1.2c0-.663-.535-1.2-1.194-1.2zm-11.148 0c-.66 0-1.195.537-1.195 1.2 0 .663.535 1.2 1.195 1.2s1.194-.537 1.194-1.2c0-.663-.535-1.2-1.194-1.2zm3.582-3.2H8.04a2.008 2.008 0 0 0-.033.238l-.006.162v.4h.398a.4.4 0 0 1 .072.794l-.072.006H8v.96c.001.339.101.67.288.952.136.206.335.355.561.432a1.993 1.993 0 0 1 1.939-1.544c.963 0 1.766.687 1.95 1.6h1.632v-4zm5.944 0h-5.148v4h4.819a1.995 1.995 0 0 1 1.802-1.595l.149-.005c.963 0 1.766.687 1.95 1.6h1.235a.399.399 0 0 0 .391-.328l.007-.072v-1.2h-1.195a.4.4 0 0 1-.072-.794l.072-.006h1.139a1.442 1.442 0 0 0-1.056-1.007l-.123-.023-3.97-.57zm-3.156.8a.4.4 0 0 1 .072.794l-.072.006h-.796a.4.4 0 0 1-.072-.794l.072-.006h.796zm-4.778 0a.4.4 0 0 1 .072.794l-.072.006h-.796a.4.4 0 0 1-.072-.794l.072-.006h.796zm-1.307-4h-.285c-.335 0-.651.14-.876.384l-.08.096L8.4 14h2.077l.597-2.4zm4.89 0h-.797V14h4.13l-2.206-1.97a1.69 1.69 0 0 0-.989-.424l-.138-.006zm-1.593 0h-2.476l-.597 2.4h3.073v-2.4z" fill="#545454" fill-rule="evenodd"/>
</svg>
