<svg xmlns="http://www.w3.org/2000/svg" viewBox="0 0 11 17" style="enable-background:new 0 0 11 17" xml:space="preserve">
    <path d="M5.1 0C3.9 0 2.8 1 2.8 2.1s1 2.1 2.2 2.1 2.1-1 2.1-2.1S6.2 0 5.1 0zm0 .7c.8 0 1.4.6 1.4 1.4s-.7 1.4-1.4 1.4c-.8 0-1.4-.6-1.4-1.4S4.3.7 5.1.7zM2.9 5.5l-.2.1C1.1 6.4.1 8 0 9.8c0 .7.4 1.3 1.1 1.5.8.2 1.5-.3 1.7-1v-.4c0-.5.3-1 .6-1.4l.1-.1V9c0 .8-.1 1.7-.2 2.5l-.1.4c-.3 1-.8 2-1.5 2.8-.5.6-.4 1.5.2 2 .6.5 1.5.4 2-.2l.2-.3c.6-.9 1.1-1.8 1.5-2.8v-.1c.7.8 1.2 1.7 1.5 2.7.2.7 1 1.2 1.8.9.2-.1.5-.2.6-.4.3-.4.4-.9.3-1.4-.6-2-1.8-3.7-3.4-5.1V8.8c.5.4 1.2.7 1.8 1l.9.2c.4.1.8.1 1.2-.1.4-.2.6-.6.7-1 .1-.7-.3-1.4-1-1.6L9.2 7c-.4-.1-.7-.3-1-.5L7.4 6c-1.3-1-3-1.2-4.5-.5zM7 6.6l.7.5c.4.3.8.5 1.3.6l.7.3c.3.1.6.4.5.8-.1.4-.4.6-.8.6h-.1l-.9-.3c-.6-.2-1.1-.5-1.6-.8l-.5-.4c-.1-.2-.3-.1-.5 0 0 .1-.1.1-.1.2v1.6c0 .3.1.6.4.8 1.5 1.3 2.5 2.9 3.2 4.8.1.2 0 .5-.1.7-.3.3-.7.3-1 .1-.2-.1-.2-.2-.3-.3a9.4 9.4 0 0 0-2-3.5c-.1-.1-.4-.2-.5 0 0 0-.1.1-.1.2-.3 1.3-1 2.5-1.8 3.5-.2.3-.7.4-1 .1-.3-.2-.4-.7-.1-1 .8-.9 1.3-1.9 1.6-3.1l.1-.4c.2-.8.3-1.7.3-2.6V7.7c0-.2-.2-.4-.3-.4h-.2l-.2.2C2.7 8 2.1 8.9 2.1 10c0 .4-.4.7-.7.7h-.1c-.4-.2-.6-.5-.6-.9 0-1.5.9-2.9 2.3-3.6l.2-.1c1.3-.5 2.7-.3 3.8.5z" style="fill-rule:evenodd;clip-rule:evenodd;fill:#545454"/>
</svg>
