<svg width="33" height="32" xmlns="http://www.w3.org/2000/svg">
    <path d="M15.613 6.4c-1.187 0-2.15.967-2.15 2.16s.963 2.16 2.15 2.16c1.188 0 2.15-.967 2.15-2.16s-.962-2.16-2.15-2.16zm0 .72c.792 0 1.434.645 1.434 1.44 0 .795-.642 1.44-1.434 1.44a1.437 1.437 0 0 1-1.433-1.44c0-.795.642-1.44 1.433-1.44zm-2.1 4.849-.197.092a4.91 4.91 0 0 0-2.718 4.327 1.478 1.478 0 0 0 1.07 1.482 1.433 1.433 0 0 0 1.793-1.324l.005-.15a2.16 2.16 0 0 1 .64-1.403l.072-.067v.614c0 .852-.08 1.703-.238 2.541l-.087.423a7.17 7.17 0 0 1-1.503 2.823c-.503.634-.4 1.54.219 2.036a1.43 1.43 0 0 0 2.014-.23l.22-.29a11.43 11.43 0 0 0 1.543-2.872l.024-.072a8.807 8.807 0 0 1 1.465 2.785 1.43 1.43 0 0 0 2.442.515c.342-.39.448-.934.278-1.424a11.402 11.402 0 0 0-3.377-5.169l-.046-.045a.353.353 0 0 1-.085-.227v-.943l-.078-.056a6.44 6.44 0 0 0 1.834.966l.843.282c.401.135.842.085 1.203-.138a1.44 1.44 0 0 0 .668-1.014 1.48 1.48 0 0 0-1.025-1.599l-.78-.262a3.583 3.583 0 0 1-1.02-.537l-.729-.549a4.426 4.426 0 0 0-4.45-.515zm4.02 1.091.728.55c.371.279.784.496 1.224.643l.788.264a.76.76 0 0 1 .534.818.716.716 0 0 1-.934.565l-.843-.282a5.724 5.724 0 0 1-1.631-.859l-.496-.373a.358.358 0 0 0-.573.288v1.662c.002.318.142.616.383.818a10.687 10.687 0 0 1 3.162 4.847.727.727 0 0 1-.136.722.715.715 0 0 1-1.22-.257 9.514 9.514 0 0 0-2.024-3.532.358.358 0 0 0-.609.14 10.71 10.71 0 0 1-1.864 3.611.714.714 0 0 1-1.007.114.722.722 0 0 1-.114-1.012 7.883 7.883 0 0 0 1.65-3.117l.092-.45c.168-.887.252-1.783.252-2.68v-1.278a.358.358 0 0 0-.519-.322l-.143.072a2.867 2.867 0 0 0-1.488 2.517.715.715 0 0 1-.892.645.759.759 0 0 1-.54-.764 4.193 4.193 0 0 1 2.314-3.7l.182-.086a3.71 3.71 0 0 1 3.724.436z" fill="#545454" fill-rule="evenodd"/>
</svg>
