<svg width="71" height="68" viewBox="0 0 71 68" xmlns="http://www.w3.org/2000/svg" xmlns:xlink="http://www.w3.org/1999/xlink">
    <defs>
        <path id="hziq87th0a" d="M0 0h42v42H0z"/>
        <path id="lsi0smzxxc" d="M0 0h70v46H0z"/>
    </defs>
    <g fill="none" fill-rule="evenodd">
        <g transform="translate(15.57)">
            <mask id="p65yf17m3b" fill="#fff">
                <use xlink:href="#hziq87th0a"/>
            </mask>
            <path d="M21 4.667C11.993 4.667 4.667 11.994 4.667 21S11.993 37.335 21 37.335c9.007 0 16.333-7.327 16.333-16.334S30.007 4.667 21 4.667m0 37.335C9.42 42.002 0 32.58 0 21 0 9.42 9.42 0 21 0s21 9.42 21 21-9.42 21.002-21 21.002" fill="#000" mask="url(#p65yf17m3b)"/>
        </g>
        <path d="M33.569 30a2.27 2.27 0 0 1-1.649-.712l-4.667-4.858a2.496 2.496 0 0 1 0-3.432 2.266 2.266 0 0 1 3.298 0l3.018 3.138 10.018-10.424a2.266 2.266 0 0 1 3.299 0 2.496 2.496 0 0 1 0 3.432L35.218 29.288a2.27 2.27 0 0 1-1.649.712" fill="#000"/>
        <g>
            <g transform="translate(.57 22)">
                <mask id="562telz5gd" fill="#fff">
                    <use xlink:href="#lsi0smzxxc"/>
                </mask>
                <path d="M6.917 46a6.918 6.918 0 0 1-6.524-9.212L10.96 4.572C11.774 2.26 13.733.547 16.086.056c1.237-.274 2.47.534 2.731 1.782a2.304 2.304 0 0 1-1.784 2.728 2.309 2.309 0 0 0-1.704 1.49L4.761 38.27c-.44 1.25.19 2.566 1.39 2.99.25.086.508.132.766.132H63.08a2.311 2.311 0 0 0 2.307-2.307c0-.262-.046-.517-.132-.765L54.656 6.004c-.252-.71-.91-1.281-1.7-1.44-1.25-.253-.253-1.479 0-2.726.251-1.248-.324-2.037.913-1.795a6.966 6.966 0 0 1 5.155 4.477l10.599 32.314c.246.689.378 1.466.378 2.25C70 42.897 66.894 46 63.08 46H6.916z" fill="#000" mask="url(#562telz5gd)"/>
            </g>
            <path d="M21.823 68c-.123 0-.25-.01-.375-.03-1.224-.208-2.052-1.387-1.848-2.63l4.5-27.428c.203-1.247 1.358-2.088 2.59-1.88 1.224.207 2.052 1.386 1.848 2.63L24.04 66.089A2.261 2.261 0 0 1 21.823 68M49.316 68a2.261 2.261 0 0 1-2.217-1.911L42.6 38.66c-.204-1.243.624-2.423 1.85-2.63 1.204-.201 2.385.634 2.59 1.88l4.498 27.43c.204 1.243-.624 2.422-1.85 2.63-.123.02-.25.03-.372.03" fill="#000"/>
            <path d="M65.275 55H5.864c-1.267 0-2.295-1.12-2.295-2.5S4.597 50 5.864 50h59.41c1.267 0 2.295 1.12 2.295 2.5S66.541 55 65.275 55M26.347 41H10.791c-1.226 0-2.222-1.12-2.222-2.5s.996-2.5 2.222-2.5h15.556c1.227 0 2.222 1.12 2.222 2.5s-.995 2.5-2.222 2.5M60.347 41H44.791c-1.226 0-2.222-1.12-2.222-2.5s.996-2.5 2.222-2.5h15.556c1.227 0 2.222 1.12 2.222 2.5s-.995 2.5-2.222 2.5" fill="#000"/>
        </g>
    </g>
</svg>
