<svg width="95" height="81" viewBox="0 0 95 81" xmlns="http://www.w3.org/2000/svg" xmlns:xlink="http://www.w3.org/1999/xlink">
    <defs>
        <path id="frsrn230za" d="M0 0h53.473v20H0z"/>
        <path id="2hpj42vk8c" d="M0 0h40.105v16.296H0z"/>
        <path id="55cv9mo1ge" d="M0 0h14.111v31.852H0z"/>
        <path id="tns2l0ipqg" d="M0 0h15.17v15.13H0z"/>
        <path id="0ahfkxaaei" d="M0 0h31.935v34.24H0z"/>
    </defs>
    <g fill="none" fill-rule="evenodd">
        <g transform="translate(41.516 13.333)">
            <mask id="jmtvhtknwb" fill="#fff">
                <use xlink:href="#frsrn230za"/>
            </mask>
            <path d="m9.047 3.333-5.013 5A2.348 2.348 0 0 0 3.341 10v5c0 .92.75 1.667 1.671 1.667H48.46A1.67 1.67 0 0 0 50.131 15v-5c0-.631-.245-1.22-.69-1.664l-5.014-5.003H9.047zM48.46 20H5.012C2.25 20 0 17.758 0 15v-5a5.658 5.658 0 0 1 1.669-4.022L7.173.488C7.488.177 7.913 0 8.354 0h36.764c.446 0 .869.176 1.183.489l5.501 5.489A5.633 5.633 0 0 1 53.473 10v5c0 2.758-2.248 5-5.013 5z" fill="#000" mask="url(#jmtvhtknwb)"/>
        </g>
        <path d="m56.49 25.437-2.362-2.358a1.691 1.691 0 0 0-1.18-.489h-8.276c-.922 0-1.67-.744-1.67-1.664 0-.922.748-1.667 1.67-1.667h8.276c1.336 0 2.592.518 3.54 1.462l2.363 2.36a1.662 1.662 0 0 1 0 2.356 1.659 1.659 0 0 1-1.18.489c-.427 0-.855-.162-1.18-.489zM79.577 25.926c-.425 0-.855-.162-1.18-.489a1.662 1.662 0 0 1 0-2.356l2.36-2.36A5.048 5.048 0 0 1 84.3 19.26h8.277c.922 0 1.67.745 1.67 1.667 0 .92-.748 1.664-1.67 1.664H84.3c-.439 0-.87.18-1.18.491l-2.363 2.356a1.659 1.659 0 0 1-1.18.489" fill="#000"/>
        <g transform="translate(48.2)">
            <mask id="l0iz1ribtd" fill="#fff">
                <use xlink:href="#2hpj42vk8c"/>
            </mask>
            <path d="M4.081 13.037h31.94l-2.942-7.664c-.488-1.265-1.742-2.115-3.126-2.115H10.156c-1.388 0-2.645.85-3.131 2.115l-2.944 7.664zm34.353 3.26H1.67c-.548 0-1.06-.264-1.373-.703-.311-.439-.383-1-.191-1.499l3.79-9.865c.972-2.532 3.485-4.231 6.258-4.231h19.799c2.77 0 5.283 1.7 6.255 4.23l3.79 9.866c.194.5.12 1.06-.191 1.5a1.683 1.683 0 0 1-1.373.701z" fill="#000" mask="url(#l0iz1ribtd)"/>
        </g>
        <path d="M50.305 16.296c-.412 0-.824-.162-1.137-.489l-2.749-2.844h-2.55c-.89 0-1.61-.747-1.61-1.667s.72-1.666 1.61-1.666h3.218c.427 0 .836.175 1.137.489l3.218 3.333a1.707 1.707 0 0 1 0 2.355 1.569 1.569 0 0 1-1.137.49M86.943 16.296c-.412 0-.824-.162-1.137-.489a1.707 1.707 0 0 1 0-2.355l3.219-3.333c.3-.314.71-.49 1.137-.49h3.218c.889 0 1.61.747 1.61 1.667s-.721 1.667-1.61 1.667h-2.55l-2.75 2.844a1.569 1.569 0 0 1-1.137.49M48.448 33.58v1.605a1.609 1.609 0 0 0 3.218 0V33.58h-3.218zM50.057 40c-2.663 0-4.827-2.161-4.827-4.815v-3.21c0-.886.72-1.605 1.609-1.605h6.436c.889 0 1.61.72 1.61 1.605v3.21c0 2.654-2.165 4.815-4.828 4.815zM84.84 32.84v1.604a1.61 1.61 0 0 0 3.218 0V32.84h-3.219zM86.448 40c-2.66 0-4.828-2.161-4.828-4.815v-3.21c0-.886.721-1.605 1.61-1.605h6.436c.888 0 1.61.72 1.61 1.605v3.21c0 2.654-2.168 4.815-4.828 4.815z" fill="#000"/>
        <g>
            <path d="M48.349 64.333c-3.685 0-6.684 2.991-6.684 6.667 0 3.676 2.999 6.667 6.684 6.667s6.684-2.991 6.684-6.667c0-3.676-2.999-6.667-6.684-6.667m0 16.667c-5.528 0-10.026-4.487-10.026-10s4.498-10 10.026-10 10.026 4.487 10.026 10-4.498 10-10.026 10M81.027 64.333c-3.685 0-6.684 2.991-6.684 6.667 0 3.676 2.999 6.667 6.684 6.667s6.684-2.991 6.684-6.667c0-3.676-2.999-6.667-6.684-6.667m0 16.667c-5.528 0-10.026-4.487-10.026-10s4.498-10 10.026-10 10.026 4.487 10.026 10-4.498 10-10.026 10" fill="#000"/>
            <g transform="translate(68.03 41)">
                <mask id="2bhj5td67f" fill="#fff">
                    <use xlink:href="#55cv9mo1ge"/>
                </mask>
                <path d="M12.495 31.852a1.618 1.618 0 0 1-1.475-.969L.284 6.537C-.446 4.887.28 2.94 1.901 2.194c.071-.03.342-.134.418-.156L8.722.072c.857-.267 1.755.23 2.014 1.098a1.648 1.648 0 0 1-1.079 2.047L3.232 5.19 13.97 29.533c.364.829 0 1.804-.812 2.176-.217.097-.44.143-.663.143" fill="#000" mask="url(#2bhj5td67f)"/>
            </g>
            <path d="M58.21 50.63H46.657c-.91 0-1.65-.664-1.65-1.482s.74-1.481 1.65-1.481H58.21c.911 0 1.65.663 1.65 1.481 0 .818-.739 1.482-1.65 1.482" fill="#000"/>
            <path d="M56.712 60.26c-.576 0-1.14-.29-1.446-.805l-5.583-9.4c-.457-.767-.178-1.742.62-2.178.8-.437 1.817-.17 2.27.593l5.583 9.4c.455.767.178 1.742-.62 2.179-.26.142-.544.21-.824.21" fill="#000"/>
            <path d="M47.398 72.852c-.345 0-.692-.11-.991-.339a1.706 1.706 0 0 1-.326-2.357l8.833-11.971c.222-.299.534-.514.886-.61l16.834-4.662c.881-.25 1.785.287 2.023 1.183.237.897-.282 1.822-1.16 2.065L57.21 60.67l-8.491 11.51a1.642 1.642 0 0 1-1.32.67" fill="#000"/>
        </g>
        <g transform="translate(0 19.222)">
            <g transform="translate(10.379)">
                <mask id="l9bn5twdih" fill="#fff">
                    <use xlink:href="#tns2l0ipqg"/>
                </mask>
                <path d="M7.585 3.362A4.213 4.213 0 0 0 3.37 7.565a4.213 4.213 0 0 0 4.214 4.202 4.213 4.213 0 0 0 4.213-4.202 4.213 4.213 0 0 0-4.213-4.203m0 11.768C3.402 15.13 0 11.736 0 7.565 0 3.393 3.402 0 7.585 0c4.182 0 7.584 3.393 7.584 7.565 0 4.171-3.402 7.565-7.584 7.565" fill="#000" mask="url(#l9bn5twdih)"/>
            </g>
            <g transform="translate(0 13.537)">
                <mask id="8c0xhqfcrj" fill="#fff">
                    <use xlink:href="#0ahfkxaaei"/>
                </mask>
                <path d="M14.355 6.776c.424 0 .838.16 1.151.456.392.372.573.91.484 1.442l-1.138 6.705a1.658 1.658 0 0 1-.23.597L6.69 28.457a1.607 1.607 0 0 0 .48 2.272 1.68 1.68 0 0 0 2.292-.487l6.412-10.081a1.674 1.674 0 0 1 2.393-.445l1.105.805a4.884 4.884 0 0 1 1.996 3.914v4.887c0 .897.742 1.628 1.657 1.628.913 0 1.657-.731 1.657-1.628v-4.89c-.006-2.545-1.246-4.983-3.319-6.519l-2.36-1.729a1.617 1.617 0 0 1-.645-1.574l.955-5.627c.088-.515.42-.956.892-1.188a1.678 1.678 0 0 1 1.503.008c1.538.782 2.9 1.914 3.934 3.275a1.676 1.676 0 0 0 2.32.322c.731-.537.881-1.56.331-2.278l-.066-.092C25.45 5.412 21.053 3.258 16.44 3.258h-.053c-5.257.013-10.18 2.786-12.847 7.232a1.602 1.602 0 0 0-.175 1.236c.113.419.384.773.767.994.38.22.826.285 1.255.172.429-.11.789-.376 1.012-.752 1.666-2.75 4.442-4.689 7.622-5.331.11-.022.223-.033.333-.033M8.04 34.241c-.92 0-1.843-.252-2.668-.776a4.866 4.866 0 0 1-2.165-3.077 4.792 4.792 0 0 1 .685-3.68l7.745-12.183.612-3.618A8.213 8.213 0 0 0 9.253 13.8a4.916 4.916 0 0 1-3.032 2.245 5.028 5.028 0 0 1-3.768-.517C.09 14.162-.704 11.161.683 8.84 3.945 3.403 9.958.015 16.377 0h.066c5.684 0 11.1 2.671 14.499 7.156.026.033.048.067.07.102 1.563 2.15 1.099 5.154-1.06 6.75-2.195 1.616-5.32 1.18-6.963-.977a7.973 7.973 0 0 0-.844-.943l-.352 2.077 1.558 1.142c2.904 2.152 4.638 5.562 4.645 9.122v4.893c0 2.695-2.23 4.886-4.972 4.886-2.742 0-4.972-2.191-4.972-4.886v-4.887c0-.365-.128-.719-.351-1.003l-5.392 8.48a5.103 5.103 0 0 1-4.27 2.329" fill="#000" mask="url(#8c0xhqfcrj)"/>
            </g>
            <ellipse fill="#FFF" cx="17.964" cy="7.565" rx="4.391" ry="4.38"/>
        </g>
    </g>
</svg>
