<svg width="132" height="69" viewBox="0 0 132 69" xmlns="http://www.w3.org/2000/svg" xmlns:xlink="http://www.w3.org/1999/xlink">
    <defs>
        <path id="zp75zh6oea" d="M0 0h63.384v50.8H0z"/>
    </defs>
    <g fill="none" fill-rule="evenodd">
        <g fill="#000">
            <path d="M35.132 40.503c-3.014 0-5.465 2.46-5.465 5.48 0 3.02 2.451 5.48 5.465 5.48 3.013 0 5.464-2.46 5.464-5.48 0-3.02-2.45-5.48-5.464-5.48m-9.837 5.48c0-5.44 4.413-9.864 9.837-9.864 5.423 0 9.836 4.425 9.836 9.864 0 5.44-4.413 9.865-9.836 9.865-5.424 0-9.837-4.426-9.837-9.865zM55.678 44.887c-3.013 0-5.464 2.46-5.464 5.48 0 3.021 2.45 5.48 5.464 5.48 3.014 0 5.465-2.459 5.465-5.48 0-3.02-2.451-5.48-5.465-5.48m-9.836 5.48c0-5.439 4.412-9.864 9.836-9.864s9.836 4.425 9.836 9.864c0 5.44-4.412 9.865-9.836 9.865s-9.836-4.425-9.836-9.865zM14.585 44.887c-3.014 0-5.465 2.46-5.465 5.48 0 3.021 2.451 5.48 5.465 5.48 3.013 0 5.464-2.459 5.464-5.48 0-3.02-2.45-5.48-5.464-5.48m-9.836 5.48c0-5.439 4.412-9.864 9.836-9.864s9.836 4.425 9.836 9.864c0 5.44-4.412 9.865-9.836 9.865s-9.836-4.425-9.836-9.865z"/>
            <path d="M46.27 64.616a2.196 2.196 0 0 1-1.91-1.105c-2.975-5.199-9.634-7.014-14.844-4.042a10.888 10.888 0 0 0-4.05 4.042 2.202 2.202 0 0 1-2.998.817 2.191 2.191 0 0 1-.818-2.992 15.287 15.287 0 0 1 5.685-5.675c7.31-4.17 16.661-1.624 20.84 5.675a2.191 2.191 0 0 1-1.905 3.28"/>
            <path d="M66.816 69a2.196 2.196 0 0 1-1.91-1.105c-2.975-5.198-9.633-7.014-14.843-4.042a10.888 10.888 0 0 0-4.05 4.042 2.202 2.202 0 0 1-2.999.817 2.191 2.191 0 0 1-.817-2.992 15.287 15.287 0 0 1 5.685-5.675c7.31-4.17 16.66-1.624 20.84 5.675A2.191 2.191 0 0 1 66.816 69M25.723 69a2.196 2.196 0 0 1-1.91-1.105c-2.975-5.198-9.634-7.014-14.844-4.042a10.888 10.888 0 0 0-4.05 4.042 2.202 2.202 0 0 1-2.998.817 2.191 2.191 0 0 1-.817-2.992 15.287 15.287 0 0 1 5.684-5.675c7.31-4.17 16.662-1.624 20.84 5.675A2.191 2.191 0 0 1 25.724 69"/>
        </g>
        <path fill="#FFF" d="M72.628 4.04h56.163v42.505H72.628z"/>
        <path d="M100.091 68.198c-1.078 0-1.954-.953-1.954-2.128V49.05c0-1.174.876-2.127 1.954-2.127 1.078 0 1.954.953 1.954 2.127v17.02c0 1.175-.876 2.128-1.954 2.128" fill="#000"/>
        <path d="M83.333 68.198a2.11 2.11 0 0 1-1.503-.624 2.125 2.125 0 0 1 0-3.007l17.019-17.021a2.124 2.124 0 0 1 3.006 0 2.125 2.125 0 0 1 0 3.007l-17.019 17.02a2.11 2.11 0 0 1-1.503.625" fill="#000"/>
        <path d="M117.283 68.198a2.11 2.11 0 0 1-1.503-.624L98.76 50.553a2.125 2.125 0 0 1 0-3.007 2.124 2.124 0 0 1 3.008 0l17.019 17.02a2.125 2.125 0 0 1 0 3.008 2.11 2.11 0 0 1-1.504.624" fill="#000"/>
        <g transform="translate(68.616 .03)">
            <mask id="u9nqhyxj9b" fill="#fff">
                <use xlink:href="#zp75zh6oea"/>
            </mask>
            <path d="M6.338 4.232A2.116 2.116 0 0 0 4.226 6.35V44.45c0 1.169.946 2.117 2.112 2.117h50.707a2.117 2.117 0 0 0 2.113-2.117V6.35c0-1.169-.95-2.117-2.113-2.117H6.338zm50.707 46.569H6.338C2.842 50.8 0 47.953 0 44.45V6.348c0-3.503 2.842-6.35 6.338-6.35h50.707c3.493 0 6.339 2.847 6.339 6.35V44.45c0 3.503-2.846 6.35-6.339 6.35z" fill="#000" mask="url(#u9nqhyxj9b)"/>
        </g>
        <path d="M70.73 16.529c-1.167 0-2.114-.875-2.114-1.954 0-1.078.947-1.954 2.113-1.954h59.158c1.166 0 2.113.876 2.113 1.954 0 1.079-.947 1.954-2.113 1.954H70.73zM79.732 38.37h7.292V23.779h-7.292v14.593zm8.493 4.21H78.53c-1.721 0-2.967-1.675-2.967-3.985V23.554c0-2.307 1.246-3.986 2.967-3.986h9.696c1.72 0 2.966 1.679 2.966 3.986v15.041c0 2.31-1.245 3.986-2.966 3.986zM96.228 38.37h7.29V23.779h-7.29v14.593zm8.493 4.21h-9.693c-1.72 0-2.968-1.675-2.968-3.985V23.554c0-2.307 1.247-3.986 2.968-3.986h9.693c1.717 0 2.967 1.679 2.967 3.986v15.041c0 2.31-1.25 3.986-2.967 3.986zM113.16 38.37h7.29V23.779h-7.29v14.593zm8.491 4.21h-9.694c-1.718 0-2.966-1.675-2.966-3.985V23.554c0-2.307 1.248-3.986 2.966-3.986h9.694c1.72 0 2.969 1.679 2.969 3.986v15.041c0 2.31-1.248 3.986-2.969 3.986z" fill="#000"/>
    </g>
</svg>
