<svg width="71" height="72" viewBox="0 0 71 72" xmlns="http://www.w3.org/2000/svg" xmlns:xlink="http://www.w3.org/1999/xlink">
    <defs>
        <path id="d5px72iiaa" d="M0 0h71v33.6H0z"/>
        <path id="b0sai0ujvc" d="M0 0h34.303v22.4H0z"/>
    </defs>
    <g fill="none" fill-rule="evenodd">
        <g transform="translate(0 18.4)">
            <mask id="lq3jqfgz7b" fill="#fff">
                <use xlink:href="#d5px72iiaa"/>
            </mask>
            <path d="M15.765 4.48 4.455 29.12H66.53c.012 0 .021 0 .027-.003L55.238 4.48H15.765zM66.548 33.6H4.455C1.993 33.597-.003 31.581 0 29.111c.003-.651.14-1.272.404-1.858l11.913-25.95A2.229 2.229 0 0 1 14.34 0h42.324c.87 0 1.657.508 2.02 1.302l11.91 25.94c1.027 2.251.047 4.915-2.184 5.949a4.45 4.45 0 0 1-1.844.409h-.018z" fill="#000" mask="url(#lq3jqfgz7b)"/>
        </g>
        <path d="M22.437 72c-.96 0-1.856-.595-2.174-1.542l-4.707-13.873-4.707 13.873c-.397 1.181-1.7 1.807-2.899 1.428-1.202-.397-1.85-1.672-1.45-2.853l6.882-20.29a2.29 2.29 0 0 1 2.174-1.543 2.29 2.29 0 0 1 2.175 1.542l6.88 20.291c.402 1.181-.247 2.456-1.449 2.853a2.416 2.416 0 0 1-.725.114M62.323 72c-.96 0-1.853-.595-2.177-1.542l-4.702-13.873-4.702 13.873c-.404 1.181-1.694 1.813-2.902 1.428-1.202-.397-1.853-1.672-1.452-2.853l6.879-20.29a2.296 2.296 0 0 1 2.177-1.543c.987 0 1.862.622 2.177 1.542L64.5 69.033c.4 1.181-.25 2.456-1.452 2.853a2.445 2.445 0 0 1-.725.114M27.099 33.783h16.006l-2.322-5.966H29.418l-2.32 5.966zm19.32 4.617H23.782a2.23 2.23 0 0 1-1.859-1.016 2.363 2.363 0 0 1-.224-2.151l4.115-10.583A2.25 2.25 0 0 1 27.9 23.2h14.403c.92 0 1.742.576 2.083 1.453l4.115 10.583a2.35 2.35 0 0 1-.225 2.148 2.23 2.23 0 0 1-1.858 1.016z" fill="#000"/>
        <path fill="#FFF" d="M51.854 42.4 47.648 32h-14.72l-4.209 10.4z"/>
        <path d="M35.076 40.183h16.005l-2.32-5.963H37.395l-2.319 5.963zm19.32 4.617H31.76c-.745 0-1.439-.379-1.858-1.013a2.365 2.365 0 0 1-.224-2.151l4.114-10.583c.342-.877 1.164-1.453 2.083-1.453h14.407c.915 0 1.741.576 2.082 1.453l4.115 10.583a2.365 2.365 0 0 1-.224 2.151 2.228 2.228 0 0 1-1.859 1.013z" fill="#000"/>
        <path fill="#FFF" d="m38.292 44-4.205-10.4H19.366L15.157 44z"/>
        <path d="M18.323 41.783H34.33l-2.322-5.966H20.642l-2.32 5.966zm19.32 4.617H15.01a2.233 2.233 0 0 1-1.862-1.013 2.374 2.374 0 0 1-.224-2.151l4.115-10.586a2.245 2.245 0 0 1 2.086-1.45h14.403c.919 0 1.745.573 2.083 1.45l4.118 10.586a2.375 2.375 0 0 1-.228 2.151 2.224 2.224 0 0 1-1.858 1.013z" fill="#000"/>
        <g transform="translate(24.73)">
            <mask id="1l614yq7zd" fill="#fff">
                <use xlink:href="#b0sai0ujvc"/>
            </mask>
            <path d="M4.444 8.96h13.331V4.478H6.665a2.232 2.232 0 0 0-2.221 2.24v2.24zM32.08 22.4a2.232 2.232 0 0 1-2.221-2.24V11.2c0-3.707-2.993-6.721-6.666-6.721h-.975v6.72c0 1.237-.995 2.24-2.222 2.24H2.222A2.232 2.232 0 0 1 0 11.2V6.72c0-3.707 2.99-6.72 6.666-6.72h16.528c6.123 0 11.11 5.023 11.11 11.2v8.96c0 1.237-.996 2.241-2.223 2.241z" fill="#000" mask="url(#1l614yq7zd)"/>
        </g>
    </g>
</svg>
