<svg fill="currentColor" xmlns="http://www.w3.org/2000/svg" viewBox="0 0 365.1 135.4" xml:space="preserve">
    <path d="M181.3 63.4 175.4 50c-.1-.1-.2-.2-.3-.2h-3.3c-.2 0-.2.1-.2.2v13.2c0 .2-.1.3-.2.4s-.3.2-.4.2h-7.1c-.2 0-.3-.1-.4-.2s-.2-.3-.2-.4v-34c0-.2.1-.3.2-.4s.3-.2.4-.2h14.9c2.2 0 4.1.4 5.8 1.4 1.7.9 3 2.2 3.9 3.8.9 1.7 1.4 3.6 1.4 5.7s-.6 4.2-1.7 5.8-2.6 2.8-4.6 3.6c-.2.1-.2.2-.1.3l6.6 13.8c.1.1.1.2.1.3 0 .3-.2.4-.6.4H182c-.3.2-.5 0-.7-.3zm-9.8-27.3v7.1c0 .2.1.2.2.2h5.6c1.2 0 2.2-.3 3-1s1.2-1.6 1.2-2.7-.4-2.1-1.2-2.8-1.8-1.1-3-1.1h-5.6c-.1 0-.2.1-.2.3zm38.6 2.5c1.8.8 3.2 1.8 4.3 3.1 1 1.3 1.6 2.8 1.6 4.4v17.1c0 .2-.1.3-.2.4s-.3.2-.4.2h-7.1c-.2 0-.3-.1-.4-.2s-.2-.3-.2-.4v-1.8c0-.1 0-.2-.1-.2s-.1 0-.2.2c-1.3 1.9-3.4 2.8-6.5 2.8-2.7 0-4.8-.6-6.4-1.9s-2.4-3.1-2.4-5.6c0-2.6.9-4.6 2.7-6s4.4-2.1 7.8-2.1h4.9c.2 0 .2-.1.2-.2v-.9c0-.9-.3-1.6-.9-2.1s-1.4-.8-2.5-.8c-.8 0-1.5.2-2.1.4s-1 .7-1.1 1.2c-.2.4-.4.5-.7.5l-7.2-1c-.4-.1-.6-.2-.6-.4.1-1.5.7-2.8 1.7-4s2.4-2.1 4.1-2.8 3.6-1 5.8-1c2.1 0 4.1.4 5.9 1.1zm-3.7 18.7c.8-.7 1.2-1.5 1.2-2.6v-1.2c0-.2-.1-.2-.2-.2h-3c-1.3 0-2.2.2-2.9.7-.7.4-1 1.1-1 2 0 .7.2 1.3.8 1.8s1.2.7 2.1.7c1.1-.2 2.2-.5 3-1.2zm29.4-28.4c.1-.1.3-.2.4-.2h7.1c.2 0 .3.1.4.2s.2.3.2.4v34c0 .2-.1.3-.2.4s-.3.2-.4.2h-7.1c-.2 0-.3-.1-.4-.2s-.2-.3-.2-.4v-1.7c0-.1 0-.2-.1-.2s-.1 0-.2.1c-1.3 1.8-3.3 2.8-5.8 2.8-2.3 0-4.3-.7-6.1-2.1s-3-3.2-3.7-5.6c-.5-1.8-.8-3.8-.8-5.8 0-2.3.4-4.5 1-6.3.8-2.1 2-3.8 3.7-5 1.7-1.3 3.7-1.9 6.2-1.9s4.2.8 5.5 2.4c.1.1.1.1.2.1s.1-.1.1-.2V29.3c.1-.2.1-.3.2-.4zm-.1 22c0-1.9-.3-3.4-1-4.5-.7-1.2-1.7-1.8-3-1.8-1.4 0-2.4.6-3.1 1.8-.7 1.1-1 2.6-1 4.5s.3 3.2.9 4.3c.7 1.3 1.8 1.9 3.2 1.9s2.4-.7 3.1-2c.6-1 .9-2.4.9-4.2zM254 63.4l-7.3-24.8v-.2c0-.3.2-.5.5-.5h7.4c.4 0 .6.2.6.6l3 13.6c0 .1.1.2.1.2s.1-.1.1-.2l3.3-13.7c.1-.3.3-.5.6-.5h6.4c.4 0 .6.2.7.5l3.4 13.7c0 .1.1.2.1.2s.1-.1.1-.2l3.4-13.7c.1-.3.3-.5.7-.5l7.3.1c.2 0 .3.1.4.2s.1.3.1.5l-7.4 24.8c-.1.3-.3.5-.6.5h-7.4c-.4 0-.6-.2-.7-.5l-3.3-11.7c0-.1-.1-.2-.1-.2s-.1.1-.1.2l-2.8 11.7c-.1.3-.3.5-.6.5h-7.4c-.2-.1-.4-.3-.5-.6zm56.2-10.8c0 .4-.2.6-.6.6h-15.3c-.1 0-.1 0-.2.1s-.1.1 0 .2c.1.4.2.8.5 1.5.4.7 1 1.3 1.8 1.7s1.8.7 3 .7c2.1 0 3.8-.7 5-2.1.1-.2.3-.2.5-.2s.3.1.4.2l3.9 4.4c.1.1.2.2.2.4 0 .1-.1.3-.2.4-1.2 1.3-2.6 2.2-4.4 2.9-1.7.7-3.6 1-5.6 1-3 0-5.6-.7-7.8-2-2.1-1.3-3.7-3.2-4.6-5.6-.7-1.7-1.1-3.8-1.1-6.3 0-1.7.3-3.4.8-5 .9-2.5 2.3-4.4 4.3-5.8s4.4-2.1 7.1-2.1c2.2 0 4.2.5 5.9 1.4s3.2 2.3 4.2 4 1.8 3.6 2.1 5.8c.1.8.1 2.1.1 3.8zm-15.9-5.5c-.1.4-.2.7-.2 1.1-.1.2 0 .2.2.2h7.1c.1 0 .2-.1.2-.2 0-.3-.1-.6-.2-1-.2-.8-.7-1.5-1.3-1.9s-1.4-.7-2.3-.7c-1.8 0-3 .8-3.5 2.5zm34.8-9c.1-.1.3-.2.4-.2h7.1c.2 0 .3.1.4.2s.2.3.2.4V61c0 4.6-1.3 7.9-4 9.8s-6 3-10 3c-1.5 0-3.1-.1-4.8-.4-.3 0-.5-.2-.5-.7l.2-6.2c0-.2.1-.4.2-.5s.3-.1.5 0c1.4.3 2.6.4 3.8.4 1.9 0 3.4-.4 4.5-1.3s1.7-2.2 1.7-4.1l-.4.3c-1.2 1.2-3 1.8-5.2 1.8s-4.2-.5-6.1-1.5-3.2-2.7-4-5.1c-.5-1.6-.8-3.6-.8-5.9 0-2.6.3-4.7 1-6.3.8-2.1 2-3.7 3.7-5s3.7-1.9 5.9-1.9c2.4 0 4.3.7 5.6 2.2.1.1.1.1.2.1s.1-.1.1-.2v-1.1l.3-.3zm-.2 12.5c0-.9 0-1.6-.1-2.1s-.2-1-.4-1.5c-.3-.7-.7-1.3-1.3-1.7s-1.3-.6-2.1-.6c-1.6 0-2.7.8-3.4 2.4-.5.9-.8 2.2-.8 3.7 0 1.6.2 2.8.6 3.6.3.7.8 1.3 1.4 1.7s1.3.7 2.2.7c1.7 0 2.9-.8 3.4-2.3.3-.9.5-2.2.5-3.9zm36.2 2c0 .4-.2.6-.6.6h-15.3c-.1 0-.1 0-.2.1s-.1.1 0 .2c.1.4.2.8.5 1.5.4.7 1 1.3 1.8 1.7s1.8.7 3 .7c2.1 0 3.8-.7 5-2.1.1-.2.3-.2.5-.2s.3.1.4.2l3.9 4.4c.1.1.2.2.2.4 0 .1-.1.3-.2.4-1.2 1.3-2.6 2.2-4.4 2.9-1.7.7-3.6 1-5.6 1-3 0-5.6-.7-7.8-2-2.1-1.3-3.7-3.2-4.6-5.6-.7-1.7-1.1-3.8-1.1-6.3 0-1.7.3-3.4.8-5 .9-2.5 2.3-4.4 4.3-5.8s4.4-2.1 7.1-2.1c2.2 0 4.2.5 5.9 1.4s3.2 2.3 4.2 4 1.8 3.6 2.1 5.8c.1.8.2 2.1.1 3.8zm-15.9-5.5c-.1.4-.2.7-.2 1.1-.1.2 0 .2.2.2h7.1c.1 0 .2-.1.2-.2 0-.3-.1-.6-.2-1-.2-.8-.7-1.5-1.3-1.9s-1.4-.7-2.3-.7c-1.8 0-2.9.8-3.5 2.5zm-180.1 61.6c-2-1-3.6-2.5-4.7-4.4s-1.7-4.1-1.7-6.6V86.8c0-2.5.6-4.7 1.7-6.6s2.7-3.4 4.7-4.4 4.4-1.6 7.1-1.6 5 .5 7.1 1.5c2 1 3.6 2.4 4.7 4.2s1.7 3.9 1.7 6.2c0 .2-.1.3-.2.4s-.3.1-.4.1l-7.1.4c-.4 0-.6-.2-.6-.6 0-1.6-.5-2.8-1.4-3.8s-2.2-1.4-3.7-1.4-2.8.5-3.7 1.4c-.9 1-1.4 2.2-1.4 3.7V98c0 1.5.5 2.8 1.4 3.7s2.2 1.4 3.7 1.4 2.8-.5 3.7-1.4 1.4-2.2 1.4-3.7c0-.4.2-.6.6-.6l7.1.4c.2 0 .3.1.4.1s.2.2.2.4c0 2.4-.6 4.5-1.7 6.3s-2.7 3.2-4.7 4.2-4.4 1.5-7.1 1.5-5.1-.6-7.1-1.6zM214 86c1.7 1.7 2.5 3.9 2.5 6.8v16.5c0 .2-.1.3-.2.4s-.3.2-.4.2h-7.1c-.2 0-.3-.1-.4-.2s-.2-.3-.2-.4V94.5c0-1.1-.3-2.1-1-2.8-.6-.7-1.5-1.1-2.5-1.1s-1.9.4-2.5 1.1-.9 1.7-.9 2.8v14.7c0 .2-.1.3-.2.4s-.3.2-.4.2h-7.1c-.2 0-.3-.1-.4-.2s-.2-.3-.2-.4v-34c0-.2.1-.3.2-.4s.3-.2.4-.2h7.1c.2 0 .3.1.4.2s.2.3.2.4v11.1c0 .1 0 .2.1.2s.1 0 .2-.1c1.3-2 3.3-3 6-3s4.7.9 6.4 2.6zm30.3 12.6c0 .4-.2.6-.6.6h-15.3c-.1 0-.1 0-.2.1s-.1.1 0 .2c.1.4.2.9.5 1.5.4.7 1 1.3 1.8 1.7s1.8.6 3 .6c2.1 0 3.8-.7 5-2.1.1-.2.3-.2.5-.2s.3.1.4.2l3.9 4.4c.1.1.2.2.2.4 0 .1-.1.3-.2.4-1.2 1.3-2.6 2.2-4.4 2.9-1.7.7-3.6 1-5.6 1-3 0-5.6-.7-7.8-2-2.1-1.3-3.7-3.2-4.6-5.6-.7-1.7-1.1-3.8-1.1-6.3 0-1.7.3-3.4.8-5 .9-2.5 2.3-4.4 4.3-5.9 2-1.4 4.4-2.1 7.1-2.1 2.2 0 4.2.5 5.9 1.4s3.2 2.3 4.2 4 1.8 3.6 2.1 5.8c.1 1 .1 2.3.1 4zm-16-5.5c-.1.4-.2.7-.2 1.1-.1.2 0 .2.2.2h7.1c.1 0 .2-.1.2-.2 0-.3-.1-.6-.2-1-.2-.8-.7-1.5-1.3-1.9s-1.4-.6-2.3-.6c-1.7-.1-2.9.8-3.5 2.4zm23.6 15.1c-2.1-1.4-3.5-3.3-4.4-5.7-.6-1.6-1-3.5-1-5.8s.3-4.2 1-5.8c.8-2.3 2.3-4.2 4.4-5.5s4.5-2 7.2-2 5.2.7 7.3 2.1 3.5 3.1 4.3 5.2c.2.6.4 1.3.5 2 0 .4-.2.6-.5.6l-7 1.1h-.1c-.3 0-.5-.2-.6-.5l-.1-.4c-.1-.3-.1-.5-.2-.7-.3-.6-.8-1.2-1.4-1.6s-1.4-.6-2.2-.6c-1.8 0-3 .8-3.5 2.4-.4.9-.5 2.2-.5 3.8 0 1.4.2 2.7.5 3.8.6 1.7 1.8 2.6 3.6 2.6.9 0 1.6-.2 2.3-.7s1.1-1.1 1.4-1.9v-.5c.1-.4.3-.6.7-.5l7 1.1c.3.1.5.2.5.6 0 .5-.1 1.1-.3 1.7-.8 2.3-2.2 4.2-4.4 5.5-2.1 1.3-4.5 2-7.3 2s-5.1-.9-7.2-2.3zm22.3 1.5c-.1-.1-.2-.3-.2-.4v-34c0-.2.1-.3.2-.4s.3-.2.4-.2h7.1c.2 0 .3.1.4.2s.2.3.2.4v15.6c0 .1 0 .2.1.2s.1 0 .2-.1l5.5-6.8c.2-.2.5-.4.8-.4h8.2c.3 0 .5.1.5.4 0 .1 0 .2-.1.4l-6.6 8.5c-.1.1-.1.2 0 .4l7.5 15.7c.1.1.1.2.1.3 0 .3-.2.4-.5.4h-7.4c-.3 0-.6-.1-.7-.4l-4.6-10.7c0-.1-.1-.1-.2-.1s-.1 0-.2.1l-2.4 3.4c-.1.1-.1.2-.1.3v6.9c0 .2-.1.3-.2.4s-.3.2-.4.2h-7.1c-.3-.1-.4-.2-.5-.3zm-150.8-9.5c1-.6 2.2-.2 2.7.7l.2.4c5.7-9.9 9-21.4 9-33.6 0-9.3-1.9-18.1-5.2-26.1H91.9l2.8 4.8c.6 1 .2 2.2-.7 2.7-.3.2-.7.3-1 .3-.7 0-1.4-.4-1.7-1l-1.6-2.8c-2.7 9.6-11.6 16.7-22 16.7s-19.3-7.1-21.9-16.7L27.5 77.2c.7.1 1.2.3 1.7.7.7.6 1.6 1 2.5 1h12.7c1.2 0 2.4.7 2.9 1.7l9.2 16.1c.7 1.1 1.9 1.9 3.2 1.9h14.4c1.3 0 2.5-.7 3.2-1.9l9.2-16.1c.7-1.1 1.7-1.7 2.9-1.7h12.7c.9 0 1.8-.3 2.5-1 .5-.5 1.2-.8 2-.8h1l-3.1-5.4c-.6-1-.2-2.2.7-2.7 1-.6 2.2-.2 2.7.7l4.3 7.4h11.7c1.5 0 2.7 1.1 3 2.5.1.2.1.4.1.6v3.4c0 2-1.7 3.7-3.7 3.7h-5.2l3.3 5.6c.6 1 .2 2.2-.7 2.7-.3.2-.7.3-1 .3-.7 0-1.4-.4-1.7-1l-4.4-7.6H107c-.8 0-1.5-.3-2-.8-.7-.6-1.6-1-2.5-1h-8.7c-1.3 0-2.6.7-3.2 1.9l-9.2 16.1c-.7 1.1-1.7 1.7-2.9 1.7h-4.8v29.7c21-1.8 39.3-13.3 50.5-29.9l-1.3-2.3c-.8-.8-.4-2 .5-2.5zm-20.5-35.6c-.3.2-.7.3-1 .3-.7 0-1.4-.4-1.7-1l-4.5-7.8c-.6-1-.2-2.2.7-2.7 1-.6 2.2-.2 2.7.7l4.5 7.8c.6 1 .3 2.2-.7 2.7zM10.6 87.4c-2 0-3.7-1.7-3.7-3.7v-2.9c0-2 1.7-3.7 3.7-3.7h12.3l20.6-35.6H5.2C1.9 49.6 0 58.4 0 67.7c0 12.2 3.3 23.7 9 33.6l8-13.9h-6.4z"/>
    <path d="M67.7 20.8C57.4 20.8 49 29.2 49 39.5s8.4 18.7 18.7 18.7 18.7-8.4 18.7-18.7S78 20.8 67.7 20.8zm10.4 14.4L66.6 46.7c-.4.4-.9.6-1.4.6-.4 0-.9-.1-1.2-.4l-6.5-5.1c-.9-.7-1-1.9-.3-2.8s1.9-1 2.8-.3l5.1 4 10.2-10.2c.8-.8 2-.8 2.8 0s.8 2 0 2.7z"/>
    <path d="M67.7 16.8c11.9 0 21.6 9.1 22.6 20.7h37.9C117.2 15.3 94.2 0 67.7 0S18.2 15.3 7.1 37.5h38c1-11.6 10.7-20.7 22.6-20.7zm-11.9 88.5c-1.2 0-2.4-.7-2.9-1.7l-9.2-16.1c-.7-1.1-1.9-1.9-3.2-1.9h-8.7c-.9 0-1.8.3-2.5 1-.5.5-1.2.8-2 .8h-5.6l-10.2 17.8C22.2 121.5 40 132.8 60.6 135v-29.6l-4.8-.1z"/>
</svg>
