<svg fill="currentColor" xmlns="http://www.w3.org/2000/svg" viewBox="0 0 135.4 135.4" xml:space="preserve">
    <path d="M123.4 100.2c1-.6 2.2-.2 2.7.7l.2.4c5.7-9.9 9-21.4 9-33.6 0-9.3-1.9-18.1-5.2-26.1H91.9l2.8 4.8c.6 1 .2 2.2-.7 2.7-.3.2-.7.3-1 .3-.7 0-1.4-.4-1.7-1l-1.6-2.8C87 55.2 78.2 62.3 67.8 62.3s-19.3-7.1-21.9-16.7L27.5 77.2c.6.1 1.2.3 1.7.7.7.6 1.6 1 2.5 1h12.7c1.2 0 2.4.7 2.9 1.7l9.2 16.1c.7 1.2 1.9 1.9 3.2 1.9h14.4c1.3 0 2.6-.7 3.2-1.9l9.2-16.1c.7-1.1 1.7-1.7 2.9-1.7h12.7c.9 0 1.8-.3 2.5-1 .5-.5 1.2-.8 2-.8h1l-3.2-5.4c-.6-1-.2-2.2.7-2.7 1-.6 2.2-.2 2.7.7l4.3 7.4h11.7c1.5 0 2.7 1.1 3 2.5.1.2.1.4.1.7v3.4c0 2-1.7 3.7-3.7 3.7H118l3.3 5.7c.6 1 .2 2.2-.7 2.7-.3.2-.7.3-1 .3-.7 0-1.4-.4-1.7-1l-4.4-7.7H107c-.8 0-1.5-.3-2-.8-.7-.6-1.6-1-2.5-1h-8.7c-1.3 0-2.6.7-3.2 1.9l-9.2 16c-.7 1.1-1.7 1.7-2.9 1.7h-4.8v29.7c21-1.8 39.3-13.2 50.5-29.9l-1.3-2.3c-.8-.8-.4-2 .5-2.5zm-20.5-35.5c-.3.2-.7.3-1 .3-.7 0-1.4-.4-1.7-1l-4.5-7.8c-.6-1-.2-2.2.7-2.7 1-.5 2.2-.2 2.7.7l4.5 7.8c.6.9.3 2.1-.7 2.7zm-14.2 45.5zM10.6 87.4c-2 0-3.7-1.7-3.7-3.7v-2.9c0-2 1.7-3.7 3.7-3.7h12.3l20.6-35.6H5.2C1.9 49.6 0 58.4 0 67.7c0 12.2 3.3 23.7 9 33.6l8-13.9h-6.4z"/>
    <path d="M67.7 20.8C57.4 20.8 49 29.2 49 39.5s8.4 18.7 18.7 18.7 18.7-8.4 18.7-18.7S78 20.8 67.7 20.8zm10.4 14.4L66.6 46.7c-.4.4-.9.6-1.4.6-.4 0-.9-.1-1.2-.4l-6.5-5.1c-.9-.7-1-1.9-.3-2.8s1.9-1 2.8-.3l5.1 4 10.2-10.2c.8-.8 2.1-.8 2.8 0 .8.7.8 2 0 2.7z"/>
    <path d="M67.7 16.8c11.9 0 21.6 9.1 22.6 20.7h38C117.2 15.3 94.2 0 67.7 0S18.2 15.3 7.1 37.5h38c1-11.6 10.7-20.7 22.6-20.7zM55.8 105.3c-1.2 0-2.4-.7-2.9-1.7l-9.2-16.1c-.7-1.2-1.9-1.9-3.2-1.9h-8.7c-.9 0-1.8.3-2.5 1-.5.5-1.2.8-2 .8h-5.6l-10.2 17.8C22.2 121.5 40 132.8 60.6 135v-29.6l-4.8-.1z"/>
</svg>
