<svg height="135.36" viewBox="0 0 135.36 135.36" width="135.36" xmlns="http://www.w3.org/2000/svg" xmlns:xlink="http://www.w3.org/1999/xlink"><linearGradient id="a"><stop offset="0" stop-color="#fcd882"/><stop offset="1" stop-color="#fabf2b"/></linearGradient><linearGradient id="b" gradientUnits="userSpaceOnUse" x1="81.44" x2="81.44" xlink:href="#a" y1="0" y2="135.36"/><linearGradient id="c" x1="21.74" x2="21.74" xlink:href="#b" y2="135.36"/><linearGradient id="d" x1="67.68" x2="67.68" xlink:href="#b" y1="0" y2="135.36"/><linearGradient id="e" x1="35.96" x2="35.96" xlink:href="#b" y1="0" y2="135.36"/><linearGradient id="f" gradientUnits="userSpaceOnUse" x1="8.79" x2="136.24" xlink:href="#a" y1="110.17" y2="110.17"/><linearGradient id="g" x1="88.72" x2="88.72" xlink:href="#b" y1="0" y2="135.36"/><path d="m123.42 100.16c.96-.55 2.18-.22 2.73.73l.25.43c5.69-9.91 8.96-21.39 8.96-33.64 0-9.27-1.87-18.1-5.24-26.14h-38.24l2.77 4.79c.55.96.22 2.18-.73 2.73-.31.18-.66.27-1 .27-.69 0-1.36-.36-1.73-1l-1.59-2.75c-2.65 9.61-11.47 16.7-21.92 16.7s-19.26-7.08-21.91-16.69l-18.25 31.61c.65.07 1.24.32 1.69.74.68.63 1.57.97 2.5.97h12.72c1.2 0 2.41.67 2.94 1.74l9.22 16.05c.66 1.15 1.88 1.86 3.21 1.86h14.42c1.32 0 2.55-.71 3.21-1.86l9.22-16.05c.67-1.07 1.74-1.74 2.94-1.74h12.72c.92 0 1.82-.34 2.5-.97.52-.49 1.24-.77 2.02-.77h1.02l-3.15-5.45c-.55-.96-.22-2.18.73-2.73.96-.55 2.18-.22 2.73.73l4.3 7.45h11.73c1.47 0 2.71 1.12 3.02 2.54.05.21.06.43.06.65v3.39c0 2.04-1.66 3.7-3.7 3.7h-5.17l3.26 5.65c.55.96.22 2.18-.73 2.73-.31.18-.66.27-1 .27-.69 0-1.36-.36-1.73-1l-4.42-7.65h-6.82c-.78 0-1.5-.28-2.02-.77-.68-.63-1.57-.97-2.5-.97h-8.71c-1.32 0-2.55.71-3.21 1.86l-9.22 16.05c-.67 1.07-1.74 1.74-2.94 1.74h-4.79v29.74c21.05-1.81 39.34-13.25 50.45-29.9l-1.33-2.3c-.55-.96-.22-2.18.73-2.73zm-20.5-35.51c-.31.18-.66.27-1 .27-.69 0-1.36-.36-1.73-1l-4.5-7.79c-.55-.96-.22-2.18.73-2.73.96-.55 2.18-.22 2.73.73l4.5 7.79c.55.96.22 2.18-.73 2.73zm-14.21 45.53-.02-.02h.05z" fill="url(#b)"/><path d="m10.57 87.45c-2.04 0-3.7-1.66-3.7-3.7v-2.89c0-2.04 1.66-3.7 3.7-3.7h12.34l20.57-35.62h-38.24c-3.37 8.04-5.24 16.87-5.24 26.14 0 12.25 3.27 23.73 8.96 33.64l8.01-13.88h-6.4z" fill="url(#c)"/><path d="m67.68 20.8c-10.33 0-18.74 8.4-18.74 18.74s8.4 18.74 18.74 18.74 18.74-8.4 18.74-18.74-8.4-18.74-18.74-18.74zm10.39 14.42-11.45 11.45c-.39.39-.9.59-1.42.59-.43 0-.87-.14-1.23-.42l-6.5-5.09c-.87-.68-1.02-1.94-.34-2.81s1.94-1.02 2.81-.34l5.11 4 10.2-10.2c.78-.78 2.05-.78 2.83 0s.78 2.05 0 2.83z" fill="url(#d)"/><path d="m67.68 16.8c11.86 0 21.63 9.13 22.64 20.74h37.95c-11.08-22.25-34.04-37.54-60.59-37.54s-49.51 15.29-60.6 37.54h37.96c1.02-11.6 10.78-20.74 22.64-20.74z" fill="url(#d)"/><path d="m55.78 105.35c-1.2 0-2.41-.67-2.94-1.74l-9.22-16.05c-.66-1.15-1.88-1.86-3.21-1.86h-8.71c-.92 0-1.82.34-2.5.97-.52.49-1.24.77-2.02.77h-5.59l-10.25 17.75c10.89 16.33 28.69 27.65 49.22 29.79v-29.64h-4.79z" fill="url(#e)"/><path d="m88.72 110.18.03-.03-.05.01z" fill="url(#f)"/><path d="m88.72 110.18.03-.03-.05.01z" fill="url(#g)"/><g fill="#fff"><path d="m44.96 38.98c.01-.48.04-.96.08-1.44h-37.96c-.65 1.31-1.28 2.64-1.84 4h38.24z"/><path d="m90.4 38.97 1.48 2.57h38.24c-.57-1.36-1.19-2.69-1.84-4h-37.95c.04.47.07.95.08 1.43z"/><path d="m89.6 45.57 1.59 2.75c.37.64 1.04 1 1.73 1 .34 0 .68-.09 1-.27.96-.55 1.28-1.78.73-2.73l-2.77-4.79h-1.56c-.12 1.38-.37 2.73-.73 4.04z"/><path d="m126.15 100.89c-.55-.96-1.77-1.29-2.73-.73-.96.55-1.28 1.78-.73 2.73l1.33 2.3c.84-1.26 1.63-2.55 2.39-3.87l-.25-.43z"/><path d="m108.15 69.71c-.55-.96-1.77-1.29-2.73-.73-.96.55-1.28 1.78-.73 2.73l3.15 5.45h4.62l-4.3-7.45z"/><path d="m118.19 95.09c.37.64 1.04 1 1.73 1 .34 0 .68-.09 1-.27.96-.55 1.28-1.78.73-2.73l-3.26-5.65h-4.62z"/><path d="m99.15 54.12c-.55-.96-1.78-1.29-2.73-.73-.96.55-1.28 1.78-.73 2.73l4.5 7.79c.37.64 1.04 1 1.73 1 .34 0 .68-.09 1-.27.96-.55 1.28-1.78.73-2.73z"/><path d="m90.42 39.54c0 .67-.04 1.34-.09 2h1.56l-1.48-2.57c0 .19.01.38.01.57z"/><path d="m43.48 41.54-20.57 35.62h4.27c.11 0 .22.02.33.03l18.25-31.61c-.36-1.3-.61-2.66-.73-4.04h-1.56z"/><path d="m16.98 87.45-8.01 13.88c.76 1.32 1.55 2.61 2.39 3.87l10.25-17.75h-4.62z"/><path d="m44.95 39.54c0-.19 0-.37.01-.56l-1.48 2.56h1.56c-.06-.66-.09-1.33-.09-2z"/></g><path d="m75.24 32.4-10.2 10.2-5.11-4c-.87-.68-2.13-.53-2.81.34s-.53 2.13.34 2.81l6.5 5.09c.36.28.8.42 1.23.42.51 0 1.03-.2 1.42-.59l11.45-11.45c.78-.78.78-2.05 0-2.83s-2.05-.78-2.83 0z"/><g fill="#fff"><path d="m87.42 37.8c.31-.18.66-.26 1-.26h1.91c-1.02-11.61-10.78-20.74-22.64-20.74s-21.63 9.13-22.64 20.74h1.91c.34 0 .68.08 1 .26.96.55 1.28 1.78.73 2.73l-2.91 5.05c2.65 9.61 11.47 16.69 21.91 16.69s19.26-7.08 21.92-16.7l-2.91-5.04c-.55-.96-.22-2.18.73-2.73zm-19.74 20.47c-10.33 0-18.74-8.4-18.74-18.74s8.4-18.74 18.74-18.74 18.74 8.4 18.74 18.74-8.4 18.74-18.74 18.74z"/><path d="m46.95 37.54h-1.91c-.04.47-.07.95-.08 1.43l.26-.44c.37-.64 1.04-.99 1.73-.99z"/><path d="m88.42 37.54c.69 0 1.36.35 1.74.99l.25.43c-.01-.48-.04-.96-.08-1.43h-1.91z"/><path d="m88.42 41.54v-4c-.34 0-.68.08-1 .26-.96.55-1.28 1.78-.73 2.73l2.91 5.04c.36-1.3.61-2.65.73-4.04h-1.91z"/><path d="m88.42 37.54v4h1.91c.06-.66.09-1.33.09-2 0-.19 0-.38-.01-.57l-.25-.43c-.37-.64-1.04-.99-1.74-.99z"/><path d="m47.95 37.8c-.32-.18-.66-.26-1-.26v4h-1.91c.12 1.39.37 2.74.73 4.04l2.91-5.05c.55-.96.22-2.18-.73-2.73z"/><path d="m45.04 41.54h1.91v-4c-.69 0-1.36.35-1.73.99l-.26.44c0 .19-.01.37-.01.56 0 .67.04 1.34.09 2z"/><path d="m78.36 105.35c1.2 0 2.27-.67 2.94-1.74l9.22-16.05c.66-1.15 1.88-1.86 3.21-1.86h8.71c.92 0 1.82.34 2.5.97.52.49 1.24.77 2.02.77h6.82l-.08-.15c-.55-.96-.22-2.18.73-2.73.96-.55 2.18-.22 2.73.73l1.24 2.15h5.17c2.04 0 3.7-1.66 3.7-3.7v-3.39c0-.22-.01-.44-.06-.65-.3-1.42-1.55-2.54-3.02-2.54h-11.73l.2.35c.55.96.22 2.18-.73 2.73-.32.18-.66.27-1 .27-.69 0-1.36-.36-1.73-1l-1.35-2.35h-1.02c-.78 0-1.5.28-2.02.77-.68.63-1.57.97-2.5.97h-12.72c-1.2 0-2.27.67-2.94 1.74l-9.22 16.05c-.66 1.15-1.88 1.86-3.21 1.86h-14.42c-1.32 0-2.55-.71-3.21-1.86l-9.22-16.05c-.53-1.07-1.74-1.74-2.94-1.74h-12.72c-.92 0-1.82-.34-2.5-.97-.45-.42-1.04-.67-1.69-.74l-5.92 10.26h5.59c.78 0 1.5-.28 2.02-.77.68-.63 1.57-.97 2.5-.97h8.71c1.32 0 2.55.71 3.21 1.86l9.22 16.05c.53 1.07 1.74 1.74 2.94 1.74h4.79v29.64c2.34.24 4.71.37 7.12.37 1.98 0 3.94-.1 5.88-.27v-29.74h4.79z"/><path d="m10.57 77.16c-2.04 0-3.7 1.66-3.7 3.7v2.89c0 2.04 1.66 3.7 3.7 3.7h6.4l5.94-10.29z"/><path d="m114.42 84.57c-.96.55-1.28 1.78-.73 2.73l.08.15h4.62l-1.24-2.15c-.55-.96-1.78-1.29-2.73-.73z"/><path d="m110.92 80.51c.34 0 .68-.09 1-.27.96-.55 1.28-1.78.73-2.73l-.2-.35h-4.62l1.35 2.35c.37.64 1.04 1 1.73 1z"/><path d="m22.92 77.16-5.94 10.29h4.62l5.92-10.26c-.11-.01-.22-.03-.33-.03z"/></g></svg>