<svg enable-background="new 0 0 365.1 135.4" viewBox="0 0 365.1 135.4" xmlns="http://www.w3.org/2000/svg" xmlns:xlink="http://www.w3.org/1999/xlink"><linearGradient id="a"><stop offset="0" stop-color="#fcd882"/><stop offset="1" stop-color="#fabf2b"/></linearGradient><linearGradient id="b" gradientTransform="matrix(1 0 0 -1 0 147.08)" gradientUnits="userSpaceOnUse" x1="81.44" x2="81.44" xlink:href="#a" y1="147.08" y2="11.72"/><linearGradient id="c" gradientTransform="matrix(1 0 0 -1 0 147.08)" gradientUnits="userSpaceOnUse" x1="21.74" x2="21.74" xlink:href="#a" y1="147.08" y2="11.72"/><linearGradient id="d" gradientTransform="matrix(1 0 0 -1 0 147.08)" gradientUnits="userSpaceOnUse" x1="67.68" x2="67.68" xlink:href="#a" y1="147.08" y2="11.72"/><linearGradient id="e" gradientTransform="matrix(1 0 0 -1 0 147.08)" gradientUnits="userSpaceOnUse" x1="67.67" x2="67.67" xlink:href="#a" y1="147.08" y2="11.72"/><linearGradient id="f" gradientTransform="matrix(1 0 0 -1 0 147.08)" gradientUnits="userSpaceOnUse" x1="35.95" x2="35.95" xlink:href="#a" y1="147.08" y2="11.72"/><path d="m181.3 63.4-5.9-13.4c-.1-.1-.2-.2-.3-.2h-3.3c-.2 0-.2.1-.2.2v13.2c0 .2-.1.3-.2.4s-.3.2-.4.2h-7.1c-.2 0-.3-.1-.4-.2s-.2-.3-.2-.4v-34c0-.2.1-.3.2-.4s.3-.2.4-.2h14.9c2.2 0 4.1.4 5.8 1.4 1.7.9 3 2.2 3.9 3.8.9 1.7 1.4 3.6 1.4 5.7s-.6 4.2-1.7 5.8-2.6 2.8-4.6 3.6c-.2.1-.2.2-.1.3l6.6 13.8c.1.1.1.2.1.3 0 .3-.2.4-.6.4h-7.6c-.3.2-.5 0-.7-.3zm-9.8-27.3v7.1c0 .2.1.2.2.2h5.6c1.2 0 2.2-.3 3-1s1.2-1.6 1.2-2.7-.4-2.1-1.2-2.8-1.8-1.1-3-1.1h-5.6c-.1 0-.2.1-.2.3z" fill="#fabe00"/><path d="m210.1 38.6c1.8.8 3.2 1.8 4.3 3.1 1 1.3 1.6 2.8 1.6 4.4v17.1c0 .2-.1.3-.2.4s-.3.2-.4.2h-7.1c-.2 0-.3-.1-.4-.2s-.2-.3-.2-.4v-1.8c0-.1 0-.2-.1-.2s-.1 0-.2.2c-1.3 1.9-3.4 2.8-6.5 2.8-2.7 0-4.8-.6-6.4-1.9s-2.4-3.1-2.4-5.6c0-2.6.9-4.6 2.7-6s4.4-2.1 7.8-2.1h4.9c.2 0 .2-.1.2-.2v-.9c0-.9-.3-1.6-.9-2.1s-1.4-.8-2.5-.8c-.8 0-1.5.2-2.1.4s-1 .7-1.1 1.2c-.2.4-.4.5-.7.5l-7.2-1c-.4-.1-.6-.2-.6-.4.1-1.5.7-2.8 1.7-4s2.4-2.1 4.1-2.8 3.6-1 5.8-1c2.1 0 4.1.4 5.9 1.1zm-3.7 18.7c.8-.7 1.2-1.5 1.2-2.6v-1.2c0-.2-.1-.2-.2-.2h-3c-1.3 0-2.2.2-2.9.7-.7.4-1 1.1-1 2 0 .7.2 1.3.8 1.8s1.2.7 2.1.7c1.1-.2 2.2-.5 3-1.2z" fill="#fabe00"/><path d="m235.8 28.9c.1-.1.3-.2.4-.2h7.1c.2 0 .3.1.4.2s.2.3.2.4v34c0 .2-.1.3-.2.4s-.3.2-.4.2h-7.1c-.2 0-.3-.1-.4-.2s-.2-.3-.2-.4v-1.7c0-.1 0-.2-.1-.2s-.1 0-.2.1c-1.3 1.8-3.3 2.8-5.8 2.8-2.3 0-4.3-.7-6.1-2.1s-3-3.2-3.7-5.6c-.5-1.8-.8-3.8-.8-5.8 0-2.3.4-4.5 1-6.3.8-2.1 2-3.8 3.7-5 1.7-1.3 3.7-1.9 6.2-1.9s4.2.8 5.5 2.4c.1.1.1.1.2.1s.1-.1.1-.2v-10.6c.1-.2.1-.3.2-.4zm-.1 22c0-1.9-.3-3.4-1-4.5-.7-1.2-1.7-1.8-3-1.8-1.4 0-2.4.6-3.1 1.8-.7 1.1-1 2.6-1 4.5s.3 3.2.9 4.3c.7 1.3 1.8 1.9 3.2 1.9s2.4-.7 3.1-2c.6-1 .9-2.4.9-4.2z" fill="#fabe00"/><path d="m254 63.4-7.3-24.8v-.2c0-.3.2-.5.5-.5h7.4c.4 0 .6.2.6.6l3 13.6c0 .1.1.2.1.2s.1-.1.1-.2l3.3-13.7c.1-.3.3-.5.6-.5h6.4c.4 0 .6.2.7.5l3.4 13.7c0 .1.1.2.1.2s.1-.1.1-.2l3.4-13.7c.1-.3.3-.5.7-.5l7.3.1c.2 0 .3.1.4.2s.1.3.1.5l-7.4 24.8c-.1.3-.3.5-.6.5h-7.4c-.4 0-.6-.2-.7-.5l-3.3-11.7c0-.1-.1-.2-.1-.2s-.1.1-.1.2l-2.8 11.7c-.1.3-.3.5-.6.5h-7.4c-.2-.1-.4-.3-.5-.6z" fill="#fabe00"/><path d="m310.2 52.6c0 .4-.2.6-.6.6h-15.3c-.1 0-.1 0-.2.1s-.1.1 0 .2c.1.4.2.8.5 1.5.4.7 1 1.3 1.8 1.7s1.8.7 3 .7c2.1 0 3.8-.7 5-2.1.1-.2.3-.2.5-.2s.3.1.4.2l3.9 4.4c.1.1.2.2.2.4 0 .1-.1.3-.2.4-1.2 1.3-2.6 2.2-4.4 2.9-1.7.7-3.6 1-5.6 1-3 0-5.6-.7-7.8-2-2.1-1.3-3.7-3.2-4.6-5.6-.7-1.7-1.1-3.8-1.1-6.3 0-1.7.3-3.4.8-5 .9-2.5 2.3-4.4 4.3-5.8s4.4-2.1 7.1-2.1c2.2 0 4.2.5 5.9 1.4s3.2 2.3 4.2 4 1.8 3.6 2.1 5.8c.1.8.1 2.1.1 3.8zm-15.9-5.5c-.1.4-.2.7-.2 1.1-.1.2 0 .2.2.2h7.1c.1 0 .2-.1.2-.2 0-.3-.1-.6-.2-1-.2-.8-.7-1.5-1.3-1.9s-1.4-.7-2.3-.7c-1.8 0-3 .8-3.5 2.5z" fill="#fabe00"/><path d="m329.1 38.1c.1-.1.3-.2.4-.2h7.1c.2 0 .3.1.4.2s.2.3.2.4v22.5c0 4.6-1.3 7.9-4 9.8s-6 3-10 3c-1.5 0-3.1-.1-4.8-.4-.3 0-.5-.2-.5-.7l.2-6.2c0-.2.1-.4.2-.5s.3-.1.5 0c1.4.3 2.6.4 3.8.4 1.9 0 3.4-.4 4.5-1.3s1.7-2.2 1.7-4.1l-.4.3c-1.2 1.2-3 1.8-5.2 1.8s-4.2-.5-6.1-1.5-3.2-2.7-4-5.1c-.5-1.6-.8-3.6-.8-5.9 0-2.6.3-4.7 1-6.3.8-2.1 2-3.7 3.7-5s3.7-1.9 5.9-1.9c2.4 0 4.3.7 5.6 2.2.1.1.1.1.2.1s.1-.1.1-.2v-1.1c.1-.1.2-.2.3-.3zm-.2 12.5c0-.9 0-1.6-.1-2.1s-.2-1-.4-1.5c-.3-.7-.7-1.3-1.3-1.7s-1.3-.6-2.1-.6c-1.6 0-2.7.8-3.4 2.4-.5.9-.8 2.2-.8 3.7 0 1.6.2 2.8.6 3.6.3.7.8 1.3 1.4 1.7s1.3.7 2.2.7c1.7 0 2.9-.8 3.4-2.3.3-.9.5-2.1.5-3.9z" fill="#fabe00"/><path d="m365.1 52.6c0 .4-.2.6-.6.6h-15.3c-.1 0-.1 0-.2.1s-.1.1 0 .2c.1.4.2.8.5 1.5.4.7 1 1.3 1.8 1.7s1.8.7 3 .7c2.1 0 3.8-.7 5-2.1.1-.2.3-.2.5-.2s.3.1.4.2l3.9 4.4c.1.1.2.2.2.4 0 .1-.1.3-.2.4-1.2 1.3-2.6 2.2-4.4 2.9-1.7.7-3.6 1-5.6 1-3 0-5.6-.7-7.8-2-2.1-1.3-3.7-3.2-4.6-5.6-.7-1.7-1.1-3.8-1.1-6.3 0-1.7.3-3.4.8-5 .9-2.5 2.3-4.4 4.3-5.8s4.4-2.1 7.1-2.1c2.2 0 4.2.5 5.9 1.4s3.2 2.3 4.2 4 1.8 3.6 2.1 5.8c.1.8.2 2.1.1 3.8zm-15.9-5.5c-.1.4-.2.7-.2 1.1-.1.2 0 .2.2.2h7.1c.1 0 .2-.1.2-.2 0-.3-.1-.6-.2-1-.2-.8-.7-1.5-1.3-1.9s-1.4-.7-2.3-.7c-1.8 0-2.9.8-3.5 2.5z" fill="#fabe00"/><path d="m169.1 108.7c-2-1-3.6-2.5-4.7-4.4s-1.7-4.1-1.7-6.6v-10.9c0-2.5.6-4.7 1.7-6.6s2.7-3.4 4.7-4.4 4.4-1.6 7.1-1.6 5 .5 7.1 1.5c2 1 3.6 2.4 4.7 4.2s1.7 3.9 1.7 6.2c0 .2-.1.3-.2.4s-.3.1-.4.1l-7.1.4c-.4 0-.6-.2-.6-.6 0-1.6-.5-2.8-1.4-3.8s-2.2-1.4-3.7-1.4-2.8.5-3.7 1.4c-.9 1-1.4 2.2-1.4 3.7v11.7c0 1.5.5 2.8 1.4 3.7s2.2 1.4 3.7 1.4 2.8-.5 3.7-1.4 1.4-2.2 1.4-3.7c0-.4.2-.6.6-.6l7.1.4c.2 0 .3.1.4.1s.2.2.2.4c0 2.4-.6 4.5-1.7 6.3s-2.7 3.2-4.7 4.2-4.4 1.5-7.1 1.5-5.1-.6-7.1-1.6z"/><path d="m214 86c1.7 1.7 2.5 3.9 2.5 6.8v16.5c0 .2-.1.3-.2.4s-.3.2-.4.2h-7.1c-.2 0-.3-.1-.4-.2s-.2-.3-.2-.4v-14.8c0-1.1-.3-2.1-1-2.8-.6-.7-1.5-1.1-2.5-1.1s-1.9.4-2.5 1.1-.9 1.7-.9 2.8v14.7c0 .2-.1.3-.2.4s-.3.2-.4.2h-7.1c-.2 0-.3-.1-.4-.2s-.2-.3-.2-.4v-34c0-.2.1-.3.2-.4s.3-.2.4-.2h7.1c.2 0 .3.1.4.2s.2.3.2.4v11.1c0 .1 0 .2.1.2s.1 0 .2-.1c1.3-2 3.3-3 6-3s4.7.9 6.4 2.6z"/><path d="m244.3 98.6c0 .4-.2.6-.6.6h-15.3c-.1 0-.1 0-.2.1s-.1.1 0 .2c.1.4.2.9.5 1.5.4.7 1 1.3 1.8 1.7s1.8.6 3 .6c2.1 0 3.8-.7 5-2.1.1-.2.3-.2.5-.2s.3.1.4.2l3.9 4.4c.1.1.2.2.2.4 0 .1-.1.3-.2.4-1.2 1.3-2.6 2.2-4.4 2.9-1.7.7-3.6 1-5.6 1-3 0-5.6-.7-7.8-2-2.1-1.3-3.7-3.2-4.6-5.6-.7-1.7-1.1-3.8-1.1-6.3 0-1.7.3-3.4.8-5 .9-2.5 2.3-4.4 4.3-5.9 2-1.4 4.4-2.1 7.1-2.1 2.2 0 4.2.5 5.9 1.4s3.2 2.3 4.2 4 1.8 3.6 2.1 5.8c.1 1 .1 2.3.1 4zm-16-5.5c-.1.4-.2.7-.2 1.1-.1.2 0 .2.2.2h7.1c.1 0 .2-.1.2-.2 0-.3-.1-.6-.2-1-.2-.8-.7-1.5-1.3-1.9s-1.4-.6-2.3-.6c-1.7-.1-2.9.8-3.5 2.4z"/><path d="m251.9 108.2c-2.1-1.4-3.5-3.3-4.4-5.7-.6-1.6-1-3.5-1-5.8s.3-4.2 1-5.8c.8-2.3 2.3-4.2 4.4-5.5s4.5-2 7.2-2 5.2.7 7.3 2.1 3.5 3.1 4.3 5.2c.2.6.4 1.3.5 2 0 .4-.2.6-.5.6l-7 1.1h-.1c-.3 0-.5-.2-.6-.5l-.1-.4c-.1-.3-.1-.5-.2-.7-.3-.6-.8-1.2-1.4-1.6s-1.4-.6-2.2-.6c-1.8 0-3 .8-3.5 2.4-.4.9-.5 2.2-.5 3.8 0 1.4.2 2.7.5 3.8.6 1.7 1.8 2.6 3.6 2.6.9 0 1.6-.2 2.3-.7s1.1-1.1 1.4-1.9c0-.1 0-.2 0-.3 0 0 0-.1 0-.2.1-.4.3-.6.7-.5l7 1.1c.3.1.5.2.5.6 0 .5-.1 1.1-.3 1.7-.8 2.3-2.2 4.2-4.4 5.5-2.1 1.3-4.5 2-7.3 2s-5.1-.9-7.2-2.3z"/><path d="m274.2 109.7c-.1-.1-.2-.3-.2-.4v-34c0-.2.1-.3.2-.4s.3-.2.4-.2h7.1c.2 0 .3.1.4.2s.2.3.2.4v15.6c0 .1 0 .2.1.2s.1 0 .2-.1l5.5-6.8c.2-.2.5-.4.8-.4h8.2c.3 0 .5.1.5.4 0 .1 0 .2-.1.4l-6.6 8.5c-.1.1-.1.2 0 .4l7.5 15.7c.1.1.1.2.1.3 0 .3-.2.4-.5.4h-7.4c-.3 0-.6-.1-.7-.4l-4.6-10.7c0-.1-.1-.1-.2-.1s-.1 0-.2.1l-2.4 3.4c-.1.1-.1.2-.1.3v6.9c0 .2-.1.3-.2.4s-.3.2-.4.2h-7.1c-.3-.1-.4-.2-.5-.3z"/><path d="m123.4 100.2c1-.6 2.2-.2 2.7.7l.2.4c5.7-9.9 9-21.4 9-33.6 0-9.3-1.9-18.1-5.2-26.1h-38.2l2.8 4.8c.6 1 .2 2.2-.7 2.7-.3.2-.7.3-1 .3-.7 0-1.4-.4-1.7-1l-1.6-2.8c-2.7 9.6-11.6 16.7-22 16.7s-19.3-7.1-21.9-16.7l-18.3 31.6c.7.1 1.2.3 1.7.7.7.6 1.6 1 2.5 1h12.7c1.2 0 2.4.7 2.9 1.7l9.2 16.1c.7 1.1 1.9 1.9 3.2 1.9h14.4c1.3 0 2.5-.7 3.2-1.9l9.2-16.1c.7-1.1 1.7-1.7 2.9-1.7h12.7c.9 0 1.8-.3 2.5-1 .5-.5 1.2-.8 2-.8h1l-3.1-5.4c-.6-1-.2-2.2.7-2.7 1-.6 2.2-.2 2.7.7l4.3 7.4h11.7c1.5 0 2.7 1.1 3 2.5.1.2.1.4.1.6v3.4c0 2-1.7 3.7-3.7 3.7h-5.2l3.3 5.6c.6 1 .2 2.2-.7 2.7-.3.2-.7.3-1 .3-.7 0-1.4-.4-1.7-1l-4.4-7.6h-6.6c-.8 0-1.5-.3-2-.8-.7-.6-1.6-1-2.5-1h-8.7c-1.3 0-2.6.7-3.2 1.9l-9.2 16.1c-.7 1.1-1.7 1.7-2.9 1.7h-4.8v29.7c21-1.8 39.3-13.3 50.5-29.9l-1.3-2.3c-.8-.8-.4-2 .5-2.5zm-20.5-35.6c-.3.2-.7.3-1 .3-.7 0-1.4-.4-1.7-1l-4.5-7.8c-.6-1-.2-2.2.7-2.7 1-.6 2.2-.2 2.7.7l4.5 7.8c.6 1 .3 2.2-.7 2.7z" fill="url(#b)"/><path d="m10.6 87.4c-2 0-3.7-1.7-3.7-3.7v-2.9c0-2 1.7-3.7 3.7-3.7h12.3l20.6-35.6h-38.3c-3.3 8.1-5.2 16.9-5.2 26.2 0 12.2 3.3 23.7 9 33.6l8-13.9z" fill="url(#c)"/><path d="m67.7 20.8c-10.3 0-18.7 8.4-18.7 18.7s8.4 18.7 18.7 18.7 18.7-8.4 18.7-18.7-8.4-18.7-18.7-18.7zm10.4 14.4-11.5 11.5c-.4.4-.9.6-1.4.6-.4 0-.9-.1-1.2-.4l-6.5-5.1c-.9-.7-1-1.9-.3-2.8s1.9-1 2.8-.3l5.1 4 10.2-10.2c.8-.8 2-.8 2.8 0s.8 2 0 2.7z" fill="url(#d)"/><path d="m67.7 16.8c11.9 0 21.6 9.1 22.6 20.7h37.9c-11-22.2-34-37.5-60.5-37.5s-49.5 15.3-60.6 37.5h38c1-11.6 10.7-20.7 22.6-20.7z" fill="url(#e)"/><path d="m55.8 105.3c-1.2 0-2.4-.7-2.9-1.7l-9.2-16.1c-.7-1.1-1.9-1.9-3.2-1.9h-8.7c-.9 0-1.8.3-2.5 1-.5.5-1.2.8-2 .8h-5.6l-10.2 17.8c10.7 16.3 28.5 27.6 49.1 29.8v-29.6z" fill="url(#f)"/><path d="m45 39c0-.5 0-1 .1-1.4h-38c-.7 1.3-1.3 2.6-1.8 4h38.2z" fill="#fff"/><path d="m90.4 39 1.5 2.6h38.2c-.6-1.4-1.2-2.7-1.8-4h-38c.1.4.1.9.1 1.4z" fill="#fff"/><path d="m89.6 45.6 1.6 2.8c.4.6 1 1 1.7 1 .3 0 .7-.1 1-.3 1-.6 1.3-1.8.7-2.7l-2.8-4.8h-1.6c0 1.3-.3 2.7-.6 4z" fill="#fff"/><path d="m126.2 100.9c-.6-1-1.8-1.3-2.7-.7-1 .6-1.3 1.8-.7 2.7l1.3 2.3c.8-1.3 1.6-2.6 2.4-3.9z" fill="#fff"/><path d="m108.2 69.7c-.6-1-1.8-1.3-2.7-.7-1 .6-1.3 1.8-.7 2.7l3.1 5.4h4.6z" fill="#fff"/><path d="m118.2 95.1c.4.6 1 1 1.7 1 .3 0 .7-.1 1-.3 1-.6 1.3-1.8.7-2.7l-3.3-5.6h-4.6z" fill="#fff"/><path d="m99.2 54.1c-.6-1-1.8-1.3-2.7-.7-1 .6-1.3 1.8-.7 2.7l4.5 7.8c.4.6 1 1 1.7 1 .3 0 .7-.1 1-.3 1-.6 1.3-1.8.7-2.7z" fill="#fff"/><path d="m90.4 39.5c0 .7 0 1.3-.1 2h1.6l-1.5-2.5z" fill="#fff"/><path d="m43.5 41.5-20.6 35.7h4.3.3l18.2-31.6c-.4-1.3-.6-2.7-.7-4h-1.5z" fill="#fff"/><path d="m17 87.4-8 13.9c.8 1.3 1.5 2.6 2.4 3.9l10.2-17.8z" fill="#fff"/><path d="m45 39.5c0-.2 0-.4 0-.6l-1.5 2.6h1.5c0-.6 0-1.3 0-2z" fill="#fff"/><path d="m75.2 32.4-10.2 10.2-5.1-4c-.9-.7-2.1-.5-2.8.3s-.5 2.1.3 2.8l6.5 5.1c.4.3.8.4 1.2.4.5 0 1-.2 1.4-.6l11.5-11.4c.8-.8.8-2.1 0-2.8s-2-.8-2.8 0z"/><g fill="#fff"><path d="m87.4 37.8c.3-.2.7-.3 1-.3h1.9c-1-11.6-10.8-20.7-22.6-20.7s-21.6 9.1-22.6 20.7h1.9c.3 0 .7.1 1 .3 1 .6 1.3 1.8.7 2.7l-2.9 5.1c2.7 9.6 11.5 16.7 21.9 16.7s19.3-7.1 21.9-16.7l-2.9-5c-.5-1-.2-2.2.7-2.8zm-19.7 20.5c-10.3 0-18.7-8.4-18.7-18.7s8.4-18.7 18.7-18.7 18.7 8.4 18.7 18.7-8.4 18.7-18.7 18.7z"/><path d="m47 37.5h-2v1.5l.3-.4c.3-.7 1-1.1 1.7-1.1z"/><path d="m88.4 37.5c.7 0 1.4.3 1.7 1l.2.4c0-.5 0-1-.1-1.4z"/><path d="m88.4 41.5v-4c-.3 0-.7.1-1 .3-1 .6-1.3 1.8-.7 2.7l2.9 5c.4-1.3.6-2.7.7-4z"/><path d="m88.4 37.5v4h1.9c.1-.7.1-1.3.1-2 0-.2 0-.4 0-.6l-.2-.4c-.4-.6-1.1-.9-1.8-1z"/><path d="m48 37.8c-.3-.2-.7-.3-1-.3v4h-2c.1 1.4.4 2.7.7 4l2.9-5.1c.6-.8.3-2.1-.6-2.6z"/><path d="m45 41.5h2v-4c-.7 0-1.4.3-1.7 1l-.3.5v.6z"/><path d="m78.4 105.3c1.2 0 2.3-.7 2.9-1.7l9.2-16.1c.7-1.1 1.9-1.9 3.2-1.9h8.7c.9 0 1.8.3 2.5 1 .5.5 1.2.8 2 .8h6.8l-.1-.1c-.6-1-.2-2.2.7-2.7 1-.6 2.2-.2 2.7.7l1.2 2.1h5.2c2 0 3.7-1.7 3.7-3.7v-3.4c0-.2 0-.4-.1-.6-.3-1.4-1.6-2.5-3-2.5h-11.7l.2.3c.6 1 .2 2.2-.7 2.7-.3.2-.7.3-1 .3-.7 0-1.4-.4-1.7-1l-1.4-2.3h-1c-.8 0-1.5.3-2 .8-.7.6-1.6 1-2.5 1h-12.6c-1.2 0-2.3.7-2.9 1.7l-9.2 16.1c-.7 1.1-1.9 1.9-3.2 1.9h-14.5c-1.3 0-2.6-.7-3.2-1.9l-9.2-16.1c-.5-1.1-1.7-1.7-2.9-1.7h-12.8c-.9 0-1.8-.3-2.5-1-.4-.4-1-.7-1.7-.7l-5.9 10.3h5.6c.8 0 1.5-.3 2-.8.7-.6 1.6-1 2.5-1h8.7c1.3 0 2.6.7 3.2 1.9l9.2 16.1c.5 1.1 1.7 1.7 2.9 1.7h4.8v29.5c2.3.2 4.7.4 7.1.4 2 0 3.9-.1 5.9-.3v-29.7z"/><path d="m10.6 77.2c-2 0-3.7 1.7-3.7 3.7v2.9c0 2 1.7 3.7 3.7 3.7h6.4l5.9-10.3z"/><path d="m114.4 84.6c-1 .6-1.3 1.8-.7 2.7l.1.1h4.6l-1.2-2.1c-.6-1-1.8-1.3-2.8-.7z"/><path d="m110.9 80.5c.3 0 .7-.1 1-.3 1-.6 1.3-1.8.7-2.7l-.2-.3h-4.6l1.4 2.4c.4.5 1 .9 1.7.9z"/><path d="m22.9 77.2-5.9 10.3h4.6l5.9-10.3c-.1 0-.2 0-.3 0z"/></g></svg>