<svg xmlns="http://www.w3.org/2000/svg" viewBox="0 0 50 50" style="enable-background:new 0 0 50 50" xml:space="preserve">
    <path d="M46.7 50c1.8 0 3.3-1.5 3.3-3.3V13.3c0-1.8-1.5-3.3-3.3-3.3H14.2l13 40h19.5z" style="fill:#dbdbdb"/>
    <path d="M46.7 11.5c.5 0 .9.2 1.3.5.3.3.5.8.5 1.2v33.4c0 .5-.2.9-.5 1.2-.3.3-.8.5-1.3.5H28.3l-12.1-37h30.5m0-1.3H14.2l13 40h19.4c1.8 0 3.3-1.5 3.3-3.3V13.3c.1-1.8-1.4-3.3-3.2-3.3z" style="fill:#dcdcdc"/>
    <path d="m24.2 40.6 3.1 9.4 8.6-9.4H24.2z" style="fill:#4352b8"/>
    <path d="M46.9 23.8v-2h-9.4v-3.2h-3.1v3.2h-6v2h12c-.6 2.3-2.1 4.4-3.4 6.1-2.4-2.9-2.5-3.8-2.5-3.8H32s.1 1.4 3.5 5.4c-1.1 1.1-2 1.8-2 1.8l.8 2.4s1.2-1 2.7-2.6c1.5 1.6 3.4 3.5 5.9 5.8l1.6-1.6c-2.7-2.4-4.6-4.3-6-5.8 1.9-2.3 3.9-5.1 4.3-7.7h4.1z" style="fill:#607988"/>
    <path d="M3.3 0C1.5 0 0 1.5 0 3.3v33.9c0 1.8 1.5 3.3 3.3 3.3h32.5L22.8 0H3.3z" style="fill:#4285f4"/>
    <path d="M18.6 21.6c-.1 1.5-1.4 3.8-4.6 3.8-2.7 0-4.9-2.2-4.9-5s2.2-5 4.9-5c1.5 0 2.6.7 3.2 1.2l2.1-2c-1.4-1.3-3.1-2-5.2-2-4.3 0-7.8 3.5-7.8 7.8s3.5 7.8 7.8 7.8c4.5 0 7.5-3.2 7.5-7.6 0-.6-.1-1.1-.2-1.6H14v2.7l4.6-.1z" style="fill:#eee"/>
</svg>
